<?xml version="1.0" standalone="no"?>
<!-- Created with glbarcode++ version 0.0.0 (https://github.com/jimevins/test-glbarcode) -->
<svg xmlns="http://www.w3.org/2000/svg" version="1.1" width="288.000000" height="72.000000" >
  <line x1="13.621622" y1="0.000000" x2="13.621622" y2="46.774775" stroke-width="1.297297" style="stroke:rgb(0,0,0)" />
  <line x1="18.162162" y1="0.000000" x2="18.162162" y2="46.774775" stroke-width="1.297297" style="stroke:rgb(0,0,0)" />
  <line x1="21.729730" y1="0.000000" x2="21.729730" y2="46.774775" stroke-width="3.243243" style="stroke:rgb(0,0,0)" />
  <line x1="26.270270" y1="0.000000" x2="26.270270" y2="46.774775" stroke-width="3.243243" style="stroke:rgb(0,0,0)" />
  <line x1="29.837838" y1="0.000000" x2="29.837838" y2="46.774775" stroke-width="1.297297" style="stroke:rgb(0,0,0)" />
  <line x1="33.405405" y1="0.000000" x2="33.405405" y2="46.774775" stroke-width="3.243243" style="stroke:rgb(0,0,0)" />
  <line x1="36.972973" y1="0.000000" x2="36.972973" y2="46.774775" stroke-width="1.297297" style="stroke:rgb(0,0,0)" />
  <line x1="40.540541" y1="0.000000" x2="40.540541" y2="46.774775" stroke-width="3.243243" style="stroke:rgb(0,0,0)" />
  <line x1="46.054054" y1="0.000000" x2="46.054054" y2="46.774775" stroke-width="1.297297" style="stroke:rgb(0,0,0)" />
  <line x1="48.648649" y1="0.000000" x2="48.648649" y2="46.774775" stroke-width="1.297297" style="stroke:rgb(0,0,0)" />
  <line x1="51.243243" y1="0.000000" x2="51.243243" y2="46.774775" stroke-width="1.297297" style="stroke:rgb(0,0,0)" />
  <line x1="55.783784" y1="0.000000" x2="55.783784" y2="46.774775" stroke-width="1.297297" style="stroke:rgb(0,0,0)" />
  <line x1="59.351351" y1="0.000000" x2="59.351351" y2="46.774775" stroke-width="3.243243" style="stroke:rgb(0,0,0)" />
  <line x1="62.918919" y1="0.000000" x2="62.918919" y2="46.774775" stroke-width="1.297297" style="stroke:rgb(0,0,0)" />
  <line x1="66.486486" y1="0.000000" x2="66.486486" y2="46.774775" stroke-width="3.243243" style="stroke:rgb(0,0,0)" />
  <line x1="71.027027" y1="0.000000" x2="71.027027" y2="46.774775" stroke-width="3.243243" style="stroke:rgb(0,0,0)" />
  <line x1="74.594595" y1="0.000000" x2="74.594595" y2="46.774775" stroke-width="1.297297" style="stroke:rgb(0,0,0)" />
  <line x1="77.189189" y1="0.000000" x2="77.189189" y2="46.774775" stroke-width="1.297297" style="stroke:rgb(0,0,0)" />
  <line x1="81.729730" y1="0.000000" x2="81.729730" y2="46.774775" stroke-width="1.297297" style="stroke:rgb(0,0,0)" />
  <line x1="85.297297" y1="0.000000" x2="85.297297" y2="46.774775" stroke-width="3.243243" style="stroke:rgb(0,0,0)" />
  <line x1="89.837838" y1="0.000000" x2="89.837838" y2="46.774775" stroke-width="3.243243" style="stroke:rgb(0,0,0)" />
  <line x1="94.378378" y1="0.000000" x2="94.378378" y2="46.774775" stroke-width="3.243243" style="stroke:rgb(0,0,0)" />
  <line x1="97.945946" y1="0.000000" x2="97.945946" y2="46.774775" stroke-width="1.297297" style="stroke:rgb(0,0,0)" />
  <line x1="100.540541" y1="0.000000" x2="100.540541" y2="46.774775" stroke-width="1.297297" style="stroke:rgb(0,0,0)" />
  <line x1="105.081081" y1="0.000000" x2="105.081081" y2="46.774775" stroke-width="1.297297" style="stroke:rgb(0,0,0)" />
  <line x1="107.675676" y1="0.000000" x2="107.675676" y2="46.774775" stroke-width="1.297297" style="stroke:rgb(0,0,0)" />
  <line x1="111.243243" y1="0.000000" x2="111.243243" y2="46.774775" stroke-width="3.243243" style="stroke:rgb(0,0,0)" />
  <line x1="115.783784" y1="0.000000" x2="115.783784" y2="46.774775" stroke-width="3.243243" style="stroke:rgb(0,0,0)" />
  <line x1="119.351351" y1="0.000000" x2="119.351351" y2="46.774775" stroke-width="1.297297" style="stroke:rgb(0,0,0)" />
  <line x1="123.891892" y1="0.000000" x2="123.891892" y2="46.774775" stroke-width="1.297297" style="stroke:rgb(0,0,0)" />
  <line x1="126.486486" y1="0.000000" x2="126.486486" y2="46.774775" stroke-width="1.297297" style="stroke:rgb(0,0,0)" />
  <line x1="130.054054" y1="0.000000" x2="130.054054" y2="46.774775" stroke-width="3.243243" style="stroke:rgb(0,0,0)" />
  <line x1="133.621622" y1="0.000000" x2="133.621622" y2="46.774775" stroke-width="1.297297" style="stroke:rgb(0,0,0)" />
  <line x1="136.216216" y1="0.000000" x2="136.216216" y2="46.774775" stroke-width="1.297297" style="stroke:rgb(0,0,0)" />
  <line x1="141.729730" y1="0.000000" x2="141.729730" y2="46.774775" stroke-width="3.243243" style="stroke:rgb(0,0,0)" />
  <line x1="146.270270" y1="0.000000" x2="146.270270" y2="46.774775" stroke-width="3.243243" style="stroke:rgb(0,0,0)" />
  <line x1="149.837838" y1="0.000000" x2="149.837838" y2="46.774775" stroke-width="1.297297" style="stroke:rgb(0,0,0)" />
  <line x1="153.405405" y1="0.000000" x2="153.405405" y2="46.774775" stroke-width="3.243243" style="stroke:rgb(0,0,0)" />
  <line x1="158.918919" y1="0.000000" x2="158.918919" y2="46.774775" stroke-width="1.297297" style="stroke:rgb(0,0,0)" />
  <line x1="161.513514" y1="0.000000" x2="161.513514" y2="46.774775" stroke-width="1.297297" style="stroke:rgb(0,0,0)" />
  <line x1="164.108108" y1="0.000000" x2="164.108108" y2="46.774775" stroke-width="1.297297" style="stroke:rgb(0,0,0)" />
  <line x1="168.648649" y1="0.000000" x2="168.648649" y2="46.774775" stroke-width="1.297297" style="stroke:rgb(0,0,0)" />
  <line x1="171.243243" y1="0.000000" x2="171.243243" y2="46.774775" stroke-width="1.297297" style="stroke:rgb(0,0,0)" />
  <line x1="174.810811" y1="0.000000" x2="174.810811" y2="46.774775" stroke-width="3.243243" style="stroke:rgb(0,0,0)" />
  <line x1="179.351351" y1="0.000000" x2="179.351351" y2="46.774775" stroke-width="3.243243" style="stroke:rgb(0,0,0)" />
  <line x1="183.891892" y1="0.000000" x2="183.891892" y2="46.774775" stroke-width="3.243243" style="stroke:rgb(0,0,0)" />
  <line x1="187.459459" y1="0.000000" x2="187.459459" y2="46.774775" stroke-width="1.297297" style="stroke:rgb(0,0,0)" />
  <line x1="192.000000" y1="0.000000" x2="192.000000" y2="46.774775" stroke-width="1.297297" style="stroke:rgb(0,0,0)" />
  <line x1="194.594595" y1="0.000000" x2="194.594595" y2="46.774775" stroke-width="1.297297" style="stroke:rgb(0,0,0)" />
  <line x1="198.162162" y1="0.000000" x2="198.162162" y2="46.774775" stroke-width="3.243243" style="stroke:rgb(0,0,0)" />
  <line x1="201.729730" y1="0.000000" x2="201.729730" y2="46.774775" stroke-width="1.297297" style="stroke:rgb(0,0,0)" />
  <line x1="205.297297" y1="0.000000" x2="205.297297" y2="46.774775" stroke-width="3.243243" style="stroke:rgb(0,0,0)" />
  <line x1="210.810811" y1="0.000000" x2="210.810811" y2="46.774775" stroke-width="1.297297" style="stroke:rgb(0,0,0)" />
  <line x1="213.405405" y1="0.000000" x2="213.405405" y2="46.774775" stroke-width="1.297297" style="stroke:rgb(0,0,0)" />
  <line x1="216.972973" y1="0.000000" x2="216.972973" y2="46.774775" stroke-width="3.243243" style="stroke:rgb(0,0,0)" />
  <line x1="221.513514" y1="0.000000" x2="221.513514" y2="46.774775" stroke-width="3.243243" style="stroke:rgb(0,0,0)" />
  <line x1="226.054054" y1="0.000000" x2="226.054054" y2="46.774775" stroke-width="3.243243" style="stroke:rgb(0,0,0)" />
  <line x1="231.567568" y1="0.000000" x2="231.567568" y2="46.774775" stroke-width="1.297297" style="stroke:rgb(0,0,0)" />
  <line x1="234.162162" y1="0.000000" x2="234.162162" y2="46.774775" stroke-width="1.297297" style="stroke:rgb(0,0,0)" />
  <line x1="236.756757" y1="0.000000" x2="236.756757" y2="46.774775" stroke-width="1.297297" style="stroke:rgb(0,0,0)" />
  <line x1="239.351351" y1="0.000000" x2="239.351351" y2="46.774775" stroke-width="1.297297" style="stroke:rgb(0,0,0)" />
  <line x1="242.918919" y1="0.000000" x2="242.918919" y2="46.774775" stroke-width="3.243243" style="stroke:rgb(0,0,0)" />
  <line x1="248.432432" y1="0.000000" x2="248.432432" y2="46.774775" stroke-width="1.297297" style="stroke:rgb(0,0,0)" />
  <line x1="252.000000" y1="0.000000" x2="252.000000" y2="46.774775" stroke-width="3.243243" style="stroke:rgb(0,0,0)" />
  <line x1="255.567568" y1="0.000000" x2="255.567568" y2="46.774775" stroke-width="1.297297" style="stroke:rgb(0,0,0)" />
  <line x1="258.162162" y1="0.000000" x2="258.162162" y2="46.774775" stroke-width="1.297297" style="stroke:rgb(0,0,0)" />
  <line x1="262.702703" y1="0.000000" x2="262.702703" y2="46.774775" stroke-width="1.297297" style="stroke:rgb(0,0,0)" />
  <line x1="266.270270" y1="0.000000" x2="266.270270" y2="46.774775" stroke-width="3.243243" style="stroke:rgb(0,0,0)" />
  <line x1="270.810811" y1="0.000000" x2="270.810811" y2="46.774775" stroke-width="3.243243" style="stroke:rgb(0,0,0)" />
  <line x1="274.378378" y1="0.000000" x2="274.378378" y2="46.774775" stroke-width="1.297297" style="stroke:rgb(0,0,0)" />
  <text x="144.000000" y="68.396396" font-size="18.018018" style="font-family:monospace;text-anchor:middle;fill:rgb(0,0,0)" >*EXAMPLE-123*</text>
</svg>
