<?xml version="1.0" standalone="no"?>
<!-- Created with glbarcode++ version 0.0.0 (https://github.com/jimevins/glbarcode) -->
<svg xmlns="http://www.w3.org/2000/svg" version="1.1" width="121.500000" height="121.500000" >
  <rect x="4.500000" y="4.500000" width="4.500000" height="4.500000" shape-rendering="crispEdges" style="fill:rgb(0,0,0)" />
  <rect x="9.000000" y="4.500000" width="4.500000" height="4.500000" shape-rendering="crispEdges" style="fill:rgb(0,0,0)" />
  <rect x="13.500000" y="4.500000" width="4.500000" height="4.500000" shape-rendering="crispEdges" style="fill:rgb(0,0,0)" />
  <rect x="18.000000" y="4.500000" width="4.500000" height="4.500000" shape-rendering="crispEdges" style="fill:rgb(0,0,0)" />
  <rect x="22.500000" y="4.500000" width="4.500000" height="4.500000" shape-rendering="crispEdges" style="fill:rgb(0,0,0)" />
  <rect x="27.000000" y="4.500000" width="4.500000" height="4.500000" shape-rendering="crispEdges" style="fill:rgb(0,0,0)" />
  <rect x="31.500000" y="4.500000" width="4.500000" height="4.500000" shape-rendering="crispEdges" style="fill:rgb(0,0,0)" />
  <rect x="45.000000" y="4.500000" width="4.500000" height="4.500000" shape-rendering="crispEdges" style="fill:rgb(0,0,0)" />
  <rect x="58.500000" y="4.500000" width="4.500000" height="4.500000" shape-rendering="crispEdges" style="fill:rgb(0,0,0)" />
  <rect x="76.500000" y="4.500000" width="4.500000" height="4.500000" shape-rendering="crispEdges" style="fill:rgb(0,0,0)" />
  <rect x="85.500000" y="4.500000" width="4.500000" height="4.500000" shape-rendering="crispEdges" style="fill:rgb(0,0,0)" />
  <rect x="90.000000" y="4.500000" width="4.500000" height="4.500000" shape-rendering="crispEdges" style="fill:rgb(0,0,0)" />
  <rect x="94.500000" y="4.500000" width="4.500000" height="4.500000" shape-rendering="crispEdges" style="fill:rgb(0,0,0)" />
  <rect x="99.000000" y="4.500000" width="4.500000" height="4.500000" shape-rendering="crispEdges" style="fill:rgb(0,0,0)" />
  <rect x="103.500000" y="4.500000" width="4.500000" height="4.500000" shape-rendering="crispEdges" style="fill:rgb(0,0,0)" />
  <rect x="108.000000" y="4.500000" width="4.500000" height="4.500000" shape-rendering="crispEdges" style="fill:rgb(0,0,0)" />
  <rect x="112.500000" y="4.500000" width="4.500000" height="4.500000" shape-rendering="crispEdges" style="fill:rgb(0,0,0)" />
  <rect x="4.500000" y="9.000000" width="4.500000" height="4.500000" shape-rendering="crispEdges" style="fill:rgb(0,0,0)" />
  <rect x="31.500000" y="9.000000" width="4.500000" height="4.500000" shape-rendering="crispEdges" style="fill:rgb(0,0,0)" />
  <rect x="49.500000" y="9.000000" width="4.500000" height="4.500000" shape-rendering="crispEdges" style="fill:rgb(0,0,0)" />
  <rect x="63.000000" y="9.000000" width="4.500000" height="4.500000" shape-rendering="crispEdges" style="fill:rgb(0,0,0)" />
  <rect x="67.500000" y="9.000000" width="4.500000" height="4.500000" shape-rendering="crispEdges" style="fill:rgb(0,0,0)" />
  <rect x="72.000000" y="9.000000" width="4.500000" height="4.500000" shape-rendering="crispEdges" style="fill:rgb(0,0,0)" />
  <rect x="85.500000" y="9.000000" width="4.500000" height="4.500000" shape-rendering="crispEdges" style="fill:rgb(0,0,0)" />
  <rect x="112.500000" y="9.000000" width="4.500000" height="4.500000" shape-rendering="crispEdges" style="fill:rgb(0,0,0)" />
  <rect x="4.500000" y="13.500000" width="4.500000" height="4.500000" shape-rendering="crispEdges" style="fill:rgb(0,0,0)" />
  <rect x="13.500000" y="13.500000" width="4.500000" height="4.500000" shape-rendering="crispEdges" style="fill:rgb(0,0,0)" />
  <rect x="18.000000" y="13.500000" width="4.500000" height="4.500000" shape-rendering="crispEdges" style="fill:rgb(0,0,0)" />
  <rect x="22.500000" y="13.500000" width="4.500000" height="4.500000" shape-rendering="crispEdges" style="fill:rgb(0,0,0)" />
  <rect x="31.500000" y="13.500000" width="4.500000" height="4.500000" shape-rendering="crispEdges" style="fill:rgb(0,0,0)" />
  <rect x="40.500000" y="13.500000" width="4.500000" height="4.500000" shape-rendering="crispEdges" style="fill:rgb(0,0,0)" />
  <rect x="45.000000" y="13.500000" width="4.500000" height="4.500000" shape-rendering="crispEdges" style="fill:rgb(0,0,0)" />
  <rect x="49.500000" y="13.500000" width="4.500000" height="4.500000" shape-rendering="crispEdges" style="fill:rgb(0,0,0)" />
  <rect x="58.500000" y="13.500000" width="4.500000" height="4.500000" shape-rendering="crispEdges" style="fill:rgb(0,0,0)" />
  <rect x="67.500000" y="13.500000" width="4.500000" height="4.500000" shape-rendering="crispEdges" style="fill:rgb(0,0,0)" />
  <rect x="85.500000" y="13.500000" width="4.500000" height="4.500000" shape-rendering="crispEdges" style="fill:rgb(0,0,0)" />
  <rect x="94.500000" y="13.500000" width="4.500000" height="4.500000" shape-rendering="crispEdges" style="fill:rgb(0,0,0)" />
  <rect x="99.000000" y="13.500000" width="4.500000" height="4.500000" shape-rendering="crispEdges" style="fill:rgb(0,0,0)" />
  <rect x="103.500000" y="13.500000" width="4.500000" height="4.500000" shape-rendering="crispEdges" style="fill:rgb(0,0,0)" />
  <rect x="112.500000" y="13.500000" width="4.500000" height="4.500000" shape-rendering="crispEdges" style="fill:rgb(0,0,0)" />
  <rect x="4.500000" y="18.000000" width="4.500000" height="4.500000" shape-rendering="crispEdges" style="fill:rgb(0,0,0)" />
  <rect x="13.500000" y="18.000000" width="4.500000" height="4.500000" shape-rendering="crispEdges" style="fill:rgb(0,0,0)" />
  <rect x="18.000000" y="18.000000" width="4.500000" height="4.500000" shape-rendering="crispEdges" style="fill:rgb(0,0,0)" />
  <rect x="22.500000" y="18.000000" width="4.500000" height="4.500000" shape-rendering="crispEdges" style="fill:rgb(0,0,0)" />
  <rect x="31.500000" y="18.000000" width="4.500000" height="4.500000" shape-rendering="crispEdges" style="fill:rgb(0,0,0)" />
  <rect x="40.500000" y="18.000000" width="4.500000" height="4.500000" shape-rendering="crispEdges" style="fill:rgb(0,0,0)" />
  <rect x="45.000000" y="18.000000" width="4.500000" height="4.500000" shape-rendering="crispEdges" style="fill:rgb(0,0,0)" />
  <rect x="49.500000" y="18.000000" width="4.500000" height="4.500000" shape-rendering="crispEdges" style="fill:rgb(0,0,0)" />
  <rect x="54.000000" y="18.000000" width="4.500000" height="4.500000" shape-rendering="crispEdges" style="fill:rgb(0,0,0)" />
  <rect x="63.000000" y="18.000000" width="4.500000" height="4.500000" shape-rendering="crispEdges" style="fill:rgb(0,0,0)" />
  <rect x="72.000000" y="18.000000" width="4.500000" height="4.500000" shape-rendering="crispEdges" style="fill:rgb(0,0,0)" />
  <rect x="76.500000" y="18.000000" width="4.500000" height="4.500000" shape-rendering="crispEdges" style="fill:rgb(0,0,0)" />
  <rect x="85.500000" y="18.000000" width="4.500000" height="4.500000" shape-rendering="crispEdges" style="fill:rgb(0,0,0)" />
  <rect x="94.500000" y="18.000000" width="4.500000" height="4.500000" shape-rendering="crispEdges" style="fill:rgb(0,0,0)" />
  <rect x="99.000000" y="18.000000" width="4.500000" height="4.500000" shape-rendering="crispEdges" style="fill:rgb(0,0,0)" />
  <rect x="103.500000" y="18.000000" width="4.500000" height="4.500000" shape-rendering="crispEdges" style="fill:rgb(0,0,0)" />
  <rect x="112.500000" y="18.000000" width="4.500000" height="4.500000" shape-rendering="crispEdges" style="fill:rgb(0,0,0)" />
  <rect x="4.500000" y="22.500000" width="4.500000" height="4.500000" shape-rendering="crispEdges" style="fill:rgb(0,0,0)" />
  <rect x="13.500000" y="22.500000" width="4.500000" height="4.500000" shape-rendering="crispEdges" style="fill:rgb(0,0,0)" />
  <rect x="18.000000" y="22.500000" width="4.500000" height="4.500000" shape-rendering="crispEdges" style="fill:rgb(0,0,0)" />
  <rect x="22.500000" y="22.500000" width="4.500000" height="4.500000" shape-rendering="crispEdges" style="fill:rgb(0,0,0)" />
  <rect x="31.500000" y="22.500000" width="4.500000" height="4.500000" shape-rendering="crispEdges" style="fill:rgb(0,0,0)" />
  <rect x="40.500000" y="22.500000" width="4.500000" height="4.500000" shape-rendering="crispEdges" style="fill:rgb(0,0,0)" />
  <rect x="49.500000" y="22.500000" width="4.500000" height="4.500000" shape-rendering="crispEdges" style="fill:rgb(0,0,0)" />
  <rect x="54.000000" y="22.500000" width="4.500000" height="4.500000" shape-rendering="crispEdges" style="fill:rgb(0,0,0)" />
  <rect x="58.500000" y="22.500000" width="4.500000" height="4.500000" shape-rendering="crispEdges" style="fill:rgb(0,0,0)" />
  <rect x="63.000000" y="22.500000" width="4.500000" height="4.500000" shape-rendering="crispEdges" style="fill:rgb(0,0,0)" />
  <rect x="76.500000" y="22.500000" width="4.500000" height="4.500000" shape-rendering="crispEdges" style="fill:rgb(0,0,0)" />
  <rect x="85.500000" y="22.500000" width="4.500000" height="4.500000" shape-rendering="crispEdges" style="fill:rgb(0,0,0)" />
  <rect x="94.500000" y="22.500000" width="4.500000" height="4.500000" shape-rendering="crispEdges" style="fill:rgb(0,0,0)" />
  <rect x="99.000000" y="22.500000" width="4.500000" height="4.500000" shape-rendering="crispEdges" style="fill:rgb(0,0,0)" />
  <rect x="103.500000" y="22.500000" width="4.500000" height="4.500000" shape-rendering="crispEdges" style="fill:rgb(0,0,0)" />
  <rect x="112.500000" y="22.500000" width="4.500000" height="4.500000" shape-rendering="crispEdges" style="fill:rgb(0,0,0)" />
  <rect x="4.500000" y="27.000000" width="4.500000" height="4.500000" shape-rendering="crispEdges" style="fill:rgb(0,0,0)" />
  <rect x="31.500000" y="27.000000" width="4.500000" height="4.500000" shape-rendering="crispEdges" style="fill:rgb(0,0,0)" />
  <rect x="40.500000" y="27.000000" width="4.500000" height="4.500000" shape-rendering="crispEdges" style="fill:rgb(0,0,0)" />
  <rect x="45.000000" y="27.000000" width="4.500000" height="4.500000" shape-rendering="crispEdges" style="fill:rgb(0,0,0)" />
  <rect x="49.500000" y="27.000000" width="4.500000" height="4.500000" shape-rendering="crispEdges" style="fill:rgb(0,0,0)" />
  <rect x="54.000000" y="27.000000" width="4.500000" height="4.500000" shape-rendering="crispEdges" style="fill:rgb(0,0,0)" />
  <rect x="58.500000" y="27.000000" width="4.500000" height="4.500000" shape-rendering="crispEdges" style="fill:rgb(0,0,0)" />
  <rect x="63.000000" y="27.000000" width="4.500000" height="4.500000" shape-rendering="crispEdges" style="fill:rgb(0,0,0)" />
  <rect x="67.500000" y="27.000000" width="4.500000" height="4.500000" shape-rendering="crispEdges" style="fill:rgb(0,0,0)" />
  <rect x="72.000000" y="27.000000" width="4.500000" height="4.500000" shape-rendering="crispEdges" style="fill:rgb(0,0,0)" />
  <rect x="76.500000" y="27.000000" width="4.500000" height="4.500000" shape-rendering="crispEdges" style="fill:rgb(0,0,0)" />
  <rect x="85.500000" y="27.000000" width="4.500000" height="4.500000" shape-rendering="crispEdges" style="fill:rgb(0,0,0)" />
  <rect x="112.500000" y="27.000000" width="4.500000" height="4.500000" shape-rendering="crispEdges" style="fill:rgb(0,0,0)" />
  <rect x="4.500000" y="31.500000" width="4.500000" height="4.500000" shape-rendering="crispEdges" style="fill:rgb(0,0,0)" />
  <rect x="9.000000" y="31.500000" width="4.500000" height="4.500000" shape-rendering="crispEdges" style="fill:rgb(0,0,0)" />
  <rect x="13.500000" y="31.500000" width="4.500000" height="4.500000" shape-rendering="crispEdges" style="fill:rgb(0,0,0)" />
  <rect x="18.000000" y="31.500000" width="4.500000" height="4.500000" shape-rendering="crispEdges" style="fill:rgb(0,0,0)" />
  <rect x="22.500000" y="31.500000" width="4.500000" height="4.500000" shape-rendering="crispEdges" style="fill:rgb(0,0,0)" />
  <rect x="27.000000" y="31.500000" width="4.500000" height="4.500000" shape-rendering="crispEdges" style="fill:rgb(0,0,0)" />
  <rect x="31.500000" y="31.500000" width="4.500000" height="4.500000" shape-rendering="crispEdges" style="fill:rgb(0,0,0)" />
  <rect x="40.500000" y="31.500000" width="4.500000" height="4.500000" shape-rendering="crispEdges" style="fill:rgb(0,0,0)" />
  <rect x="49.500000" y="31.500000" width="4.500000" height="4.500000" shape-rendering="crispEdges" style="fill:rgb(0,0,0)" />
  <rect x="58.500000" y="31.500000" width="4.500000" height="4.500000" shape-rendering="crispEdges" style="fill:rgb(0,0,0)" />
  <rect x="67.500000" y="31.500000" width="4.500000" height="4.500000" shape-rendering="crispEdges" style="fill:rgb(0,0,0)" />
  <rect x="76.500000" y="31.500000" width="4.500000" height="4.500000" shape-rendering="crispEdges" style="fill:rgb(0,0,0)" />
  <rect x="85.500000" y="31.500000" width="4.500000" height="4.500000" shape-rendering="crispEdges" style="fill:rgb(0,0,0)" />
  <rect x="90.000000" y="31.500000" width="4.500000" height="4.500000" shape-rendering="crispEdges" style="fill:rgb(0,0,0)" />
  <rect x="94.500000" y="31.500000" width="4.500000" height="4.500000" shape-rendering="crispEdges" style="fill:rgb(0,0,0)" />
  <rect x="99.000000" y="31.500000" width="4.500000" height="4.500000" shape-rendering="crispEdges" style="fill:rgb(0,0,0)" />
  <rect x="103.500000" y="31.500000" width="4.500000" height="4.500000" shape-rendering="crispEdges" style="fill:rgb(0,0,0)" />
  <rect x="108.000000" y="31.500000" width="4.500000" height="4.500000" shape-rendering="crispEdges" style="fill:rgb(0,0,0)" />
  <rect x="112.500000" y="31.500000" width="4.500000" height="4.500000" shape-rendering="crispEdges" style="fill:rgb(0,0,0)" />
  <rect x="40.500000" y="36.000000" width="4.500000" height="4.500000" shape-rendering="crispEdges" style="fill:rgb(0,0,0)" />
  <rect x="45.000000" y="36.000000" width="4.500000" height="4.500000" shape-rendering="crispEdges" style="fill:rgb(0,0,0)" />
  <rect x="58.500000" y="36.000000" width="4.500000" height="4.500000" shape-rendering="crispEdges" style="fill:rgb(0,0,0)" />
  <rect x="67.500000" y="36.000000" width="4.500000" height="4.500000" shape-rendering="crispEdges" style="fill:rgb(0,0,0)" />
  <rect x="76.500000" y="36.000000" width="4.500000" height="4.500000" shape-rendering="crispEdges" style="fill:rgb(0,0,0)" />
  <rect x="4.500000" y="40.500000" width="4.500000" height="4.500000" shape-rendering="crispEdges" style="fill:rgb(0,0,0)" />
  <rect x="13.500000" y="40.500000" width="4.500000" height="4.500000" shape-rendering="crispEdges" style="fill:rgb(0,0,0)" />
  <rect x="18.000000" y="40.500000" width="4.500000" height="4.500000" shape-rendering="crispEdges" style="fill:rgb(0,0,0)" />
  <rect x="22.500000" y="40.500000" width="4.500000" height="4.500000" shape-rendering="crispEdges" style="fill:rgb(0,0,0)" />
  <rect x="27.000000" y="40.500000" width="4.500000" height="4.500000" shape-rendering="crispEdges" style="fill:rgb(0,0,0)" />
  <rect x="31.500000" y="40.500000" width="4.500000" height="4.500000" shape-rendering="crispEdges" style="fill:rgb(0,0,0)" />
  <rect x="45.000000" y="40.500000" width="4.500000" height="4.500000" shape-rendering="crispEdges" style="fill:rgb(0,0,0)" />
  <rect x="49.500000" y="40.500000" width="4.500000" height="4.500000" shape-rendering="crispEdges" style="fill:rgb(0,0,0)" />
  <rect x="54.000000" y="40.500000" width="4.500000" height="4.500000" shape-rendering="crispEdges" style="fill:rgb(0,0,0)" />
  <rect x="85.500000" y="40.500000" width="4.500000" height="4.500000" shape-rendering="crispEdges" style="fill:rgb(0,0,0)" />
  <rect x="90.000000" y="40.500000" width="4.500000" height="4.500000" shape-rendering="crispEdges" style="fill:rgb(0,0,0)" />
  <rect x="94.500000" y="40.500000" width="4.500000" height="4.500000" shape-rendering="crispEdges" style="fill:rgb(0,0,0)" />
  <rect x="99.000000" y="40.500000" width="4.500000" height="4.500000" shape-rendering="crispEdges" style="fill:rgb(0,0,0)" />
  <rect x="103.500000" y="40.500000" width="4.500000" height="4.500000" shape-rendering="crispEdges" style="fill:rgb(0,0,0)" />
  <rect x="4.500000" y="45.000000" width="4.500000" height="4.500000" shape-rendering="crispEdges" style="fill:rgb(0,0,0)" />
  <rect x="18.000000" y="45.000000" width="4.500000" height="4.500000" shape-rendering="crispEdges" style="fill:rgb(0,0,0)" />
  <rect x="22.500000" y="45.000000" width="4.500000" height="4.500000" shape-rendering="crispEdges" style="fill:rgb(0,0,0)" />
  <rect x="54.000000" y="45.000000" width="4.500000" height="4.500000" shape-rendering="crispEdges" style="fill:rgb(0,0,0)" />
  <rect x="58.500000" y="45.000000" width="4.500000" height="4.500000" shape-rendering="crispEdges" style="fill:rgb(0,0,0)" />
  <rect x="63.000000" y="45.000000" width="4.500000" height="4.500000" shape-rendering="crispEdges" style="fill:rgb(0,0,0)" />
  <rect x="76.500000" y="45.000000" width="4.500000" height="4.500000" shape-rendering="crispEdges" style="fill:rgb(0,0,0)" />
  <rect x="90.000000" y="45.000000" width="4.500000" height="4.500000" shape-rendering="crispEdges" style="fill:rgb(0,0,0)" />
  <rect x="108.000000" y="45.000000" width="4.500000" height="4.500000" shape-rendering="crispEdges" style="fill:rgb(0,0,0)" />
  <rect x="4.500000" y="49.500000" width="4.500000" height="4.500000" shape-rendering="crispEdges" style="fill:rgb(0,0,0)" />
  <rect x="18.000000" y="49.500000" width="4.500000" height="4.500000" shape-rendering="crispEdges" style="fill:rgb(0,0,0)" />
  <rect x="31.500000" y="49.500000" width="4.500000" height="4.500000" shape-rendering="crispEdges" style="fill:rgb(0,0,0)" />
  <rect x="36.000000" y="49.500000" width="4.500000" height="4.500000" shape-rendering="crispEdges" style="fill:rgb(0,0,0)" />
  <rect x="45.000000" y="49.500000" width="4.500000" height="4.500000" shape-rendering="crispEdges" style="fill:rgb(0,0,0)" />
  <rect x="49.500000" y="49.500000" width="4.500000" height="4.500000" shape-rendering="crispEdges" style="fill:rgb(0,0,0)" />
  <rect x="63.000000" y="49.500000" width="4.500000" height="4.500000" shape-rendering="crispEdges" style="fill:rgb(0,0,0)" />
  <rect x="67.500000" y="49.500000" width="4.500000" height="4.500000" shape-rendering="crispEdges" style="fill:rgb(0,0,0)" />
  <rect x="72.000000" y="49.500000" width="4.500000" height="4.500000" shape-rendering="crispEdges" style="fill:rgb(0,0,0)" />
  <rect x="85.500000" y="49.500000" width="4.500000" height="4.500000" shape-rendering="crispEdges" style="fill:rgb(0,0,0)" />
  <rect x="99.000000" y="49.500000" width="4.500000" height="4.500000" shape-rendering="crispEdges" style="fill:rgb(0,0,0)" />
  <rect x="108.000000" y="49.500000" width="4.500000" height="4.500000" shape-rendering="crispEdges" style="fill:rgb(0,0,0)" />
  <rect x="112.500000" y="49.500000" width="4.500000" height="4.500000" shape-rendering="crispEdges" style="fill:rgb(0,0,0)" />
  <rect x="4.500000" y="54.000000" width="4.500000" height="4.500000" shape-rendering="crispEdges" style="fill:rgb(0,0,0)" />
  <rect x="13.500000" y="54.000000" width="4.500000" height="4.500000" shape-rendering="crispEdges" style="fill:rgb(0,0,0)" />
  <rect x="18.000000" y="54.000000" width="4.500000" height="4.500000" shape-rendering="crispEdges" style="fill:rgb(0,0,0)" />
  <rect x="22.500000" y="54.000000" width="4.500000" height="4.500000" shape-rendering="crispEdges" style="fill:rgb(0,0,0)" />
  <rect x="36.000000" y="54.000000" width="4.500000" height="4.500000" shape-rendering="crispEdges" style="fill:rgb(0,0,0)" />
  <rect x="40.500000" y="54.000000" width="4.500000" height="4.500000" shape-rendering="crispEdges" style="fill:rgb(0,0,0)" />
  <rect x="45.000000" y="54.000000" width="4.500000" height="4.500000" shape-rendering="crispEdges" style="fill:rgb(0,0,0)" />
  <rect x="54.000000" y="54.000000" width="4.500000" height="4.500000" shape-rendering="crispEdges" style="fill:rgb(0,0,0)" />
  <rect x="58.500000" y="54.000000" width="4.500000" height="4.500000" shape-rendering="crispEdges" style="fill:rgb(0,0,0)" />
  <rect x="63.000000" y="54.000000" width="4.500000" height="4.500000" shape-rendering="crispEdges" style="fill:rgb(0,0,0)" />
  <rect x="76.500000" y="54.000000" width="4.500000" height="4.500000" shape-rendering="crispEdges" style="fill:rgb(0,0,0)" />
  <rect x="81.000000" y="54.000000" width="4.500000" height="4.500000" shape-rendering="crispEdges" style="fill:rgb(0,0,0)" />
  <rect x="85.500000" y="54.000000" width="4.500000" height="4.500000" shape-rendering="crispEdges" style="fill:rgb(0,0,0)" />
  <rect x="90.000000" y="54.000000" width="4.500000" height="4.500000" shape-rendering="crispEdges" style="fill:rgb(0,0,0)" />
  <rect x="94.500000" y="54.000000" width="4.500000" height="4.500000" shape-rendering="crispEdges" style="fill:rgb(0,0,0)" />
  <rect x="112.500000" y="54.000000" width="4.500000" height="4.500000" shape-rendering="crispEdges" style="fill:rgb(0,0,0)" />
  <rect x="9.000000" y="58.500000" width="4.500000" height="4.500000" shape-rendering="crispEdges" style="fill:rgb(0,0,0)" />
  <rect x="22.500000" y="58.500000" width="4.500000" height="4.500000" shape-rendering="crispEdges" style="fill:rgb(0,0,0)" />
  <rect x="27.000000" y="58.500000" width="4.500000" height="4.500000" shape-rendering="crispEdges" style="fill:rgb(0,0,0)" />
  <rect x="31.500000" y="58.500000" width="4.500000" height="4.500000" shape-rendering="crispEdges" style="fill:rgb(0,0,0)" />
  <rect x="40.500000" y="58.500000" width="4.500000" height="4.500000" shape-rendering="crispEdges" style="fill:rgb(0,0,0)" />
  <rect x="49.500000" y="58.500000" width="4.500000" height="4.500000" shape-rendering="crispEdges" style="fill:rgb(0,0,0)" />
  <rect x="58.500000" y="58.500000" width="4.500000" height="4.500000" shape-rendering="crispEdges" style="fill:rgb(0,0,0)" />
  <rect x="67.500000" y="58.500000" width="4.500000" height="4.500000" shape-rendering="crispEdges" style="fill:rgb(0,0,0)" />
  <rect x="81.000000" y="58.500000" width="4.500000" height="4.500000" shape-rendering="crispEdges" style="fill:rgb(0,0,0)" />
  <rect x="85.500000" y="58.500000" width="4.500000" height="4.500000" shape-rendering="crispEdges" style="fill:rgb(0,0,0)" />
  <rect x="94.500000" y="58.500000" width="4.500000" height="4.500000" shape-rendering="crispEdges" style="fill:rgb(0,0,0)" />
  <rect x="103.500000" y="58.500000" width="4.500000" height="4.500000" shape-rendering="crispEdges" style="fill:rgb(0,0,0)" />
  <rect x="108.000000" y="58.500000" width="4.500000" height="4.500000" shape-rendering="crispEdges" style="fill:rgb(0,0,0)" />
  <rect x="112.500000" y="58.500000" width="4.500000" height="4.500000" shape-rendering="crispEdges" style="fill:rgb(0,0,0)" />
  <rect x="4.500000" y="63.000000" width="4.500000" height="4.500000" shape-rendering="crispEdges" style="fill:rgb(0,0,0)" />
  <rect x="13.500000" y="63.000000" width="4.500000" height="4.500000" shape-rendering="crispEdges" style="fill:rgb(0,0,0)" />
  <rect x="18.000000" y="63.000000" width="4.500000" height="4.500000" shape-rendering="crispEdges" style="fill:rgb(0,0,0)" />
  <rect x="45.000000" y="63.000000" width="4.500000" height="4.500000" shape-rendering="crispEdges" style="fill:rgb(0,0,0)" />
  <rect x="90.000000" y="63.000000" width="4.500000" height="4.500000" shape-rendering="crispEdges" style="fill:rgb(0,0,0)" />
  <rect x="99.000000" y="63.000000" width="4.500000" height="4.500000" shape-rendering="crispEdges" style="fill:rgb(0,0,0)" />
  <rect x="108.000000" y="63.000000" width="4.500000" height="4.500000" shape-rendering="crispEdges" style="fill:rgb(0,0,0)" />
  <rect x="4.500000" y="67.500000" width="4.500000" height="4.500000" shape-rendering="crispEdges" style="fill:rgb(0,0,0)" />
  <rect x="18.000000" y="67.500000" width="4.500000" height="4.500000" shape-rendering="crispEdges" style="fill:rgb(0,0,0)" />
  <rect x="27.000000" y="67.500000" width="4.500000" height="4.500000" shape-rendering="crispEdges" style="fill:rgb(0,0,0)" />
  <rect x="31.500000" y="67.500000" width="4.500000" height="4.500000" shape-rendering="crispEdges" style="fill:rgb(0,0,0)" />
  <rect x="54.000000" y="67.500000" width="4.500000" height="4.500000" shape-rendering="crispEdges" style="fill:rgb(0,0,0)" />
  <rect x="58.500000" y="67.500000" width="4.500000" height="4.500000" shape-rendering="crispEdges" style="fill:rgb(0,0,0)" />
  <rect x="72.000000" y="67.500000" width="4.500000" height="4.500000" shape-rendering="crispEdges" style="fill:rgb(0,0,0)" />
  <rect x="76.500000" y="67.500000" width="4.500000" height="4.500000" shape-rendering="crispEdges" style="fill:rgb(0,0,0)" />
  <rect x="85.500000" y="67.500000" width="4.500000" height="4.500000" shape-rendering="crispEdges" style="fill:rgb(0,0,0)" />
  <rect x="90.000000" y="67.500000" width="4.500000" height="4.500000" shape-rendering="crispEdges" style="fill:rgb(0,0,0)" />
  <rect x="94.500000" y="67.500000" width="4.500000" height="4.500000" shape-rendering="crispEdges" style="fill:rgb(0,0,0)" />
  <rect x="99.000000" y="67.500000" width="4.500000" height="4.500000" shape-rendering="crispEdges" style="fill:rgb(0,0,0)" />
  <rect x="108.000000" y="67.500000" width="4.500000" height="4.500000" shape-rendering="crispEdges" style="fill:rgb(0,0,0)" />
  <rect x="112.500000" y="67.500000" width="4.500000" height="4.500000" shape-rendering="crispEdges" style="fill:rgb(0,0,0)" />
  <rect x="4.500000" y="72.000000" width="4.500000" height="4.500000" shape-rendering="crispEdges" style="fill:rgb(0,0,0)" />
  <rect x="22.500000" y="72.000000" width="4.500000" height="4.500000" shape-rendering="crispEdges" style="fill:rgb(0,0,0)" />
  <rect x="27.000000" y="72.000000" width="4.500000" height="4.500000" shape-rendering="crispEdges" style="fill:rgb(0,0,0)" />
  <rect x="40.500000" y="72.000000" width="4.500000" height="4.500000" shape-rendering="crispEdges" style="fill:rgb(0,0,0)" />
  <rect x="49.500000" y="72.000000" width="4.500000" height="4.500000" shape-rendering="crispEdges" style="fill:rgb(0,0,0)" />
  <rect x="54.000000" y="72.000000" width="4.500000" height="4.500000" shape-rendering="crispEdges" style="fill:rgb(0,0,0)" />
  <rect x="67.500000" y="72.000000" width="4.500000" height="4.500000" shape-rendering="crispEdges" style="fill:rgb(0,0,0)" />
  <rect x="90.000000" y="72.000000" width="4.500000" height="4.500000" shape-rendering="crispEdges" style="fill:rgb(0,0,0)" />
  <rect x="99.000000" y="72.000000" width="4.500000" height="4.500000" shape-rendering="crispEdges" style="fill:rgb(0,0,0)" />
  <rect x="112.500000" y="72.000000" width="4.500000" height="4.500000" shape-rendering="crispEdges" style="fill:rgb(0,0,0)" />
  <rect x="4.500000" y="76.500000" width="4.500000" height="4.500000" shape-rendering="crispEdges" style="fill:rgb(0,0,0)" />
  <rect x="13.500000" y="76.500000" width="4.500000" height="4.500000" shape-rendering="crispEdges" style="fill:rgb(0,0,0)" />
  <rect x="18.000000" y="76.500000" width="4.500000" height="4.500000" shape-rendering="crispEdges" style="fill:rgb(0,0,0)" />
  <rect x="22.500000" y="76.500000" width="4.500000" height="4.500000" shape-rendering="crispEdges" style="fill:rgb(0,0,0)" />
  <rect x="31.500000" y="76.500000" width="4.500000" height="4.500000" shape-rendering="crispEdges" style="fill:rgb(0,0,0)" />
  <rect x="36.000000" y="76.500000" width="4.500000" height="4.500000" shape-rendering="crispEdges" style="fill:rgb(0,0,0)" />
  <rect x="45.000000" y="76.500000" width="4.500000" height="4.500000" shape-rendering="crispEdges" style="fill:rgb(0,0,0)" />
  <rect x="54.000000" y="76.500000" width="4.500000" height="4.500000" shape-rendering="crispEdges" style="fill:rgb(0,0,0)" />
  <rect x="72.000000" y="76.500000" width="4.500000" height="4.500000" shape-rendering="crispEdges" style="fill:rgb(0,0,0)" />
  <rect x="76.500000" y="76.500000" width="4.500000" height="4.500000" shape-rendering="crispEdges" style="fill:rgb(0,0,0)" />
  <rect x="81.000000" y="76.500000" width="4.500000" height="4.500000" shape-rendering="crispEdges" style="fill:rgb(0,0,0)" />
  <rect x="85.500000" y="76.500000" width="4.500000" height="4.500000" shape-rendering="crispEdges" style="fill:rgb(0,0,0)" />
  <rect x="90.000000" y="76.500000" width="4.500000" height="4.500000" shape-rendering="crispEdges" style="fill:rgb(0,0,0)" />
  <rect x="94.500000" y="76.500000" width="4.500000" height="4.500000" shape-rendering="crispEdges" style="fill:rgb(0,0,0)" />
  <rect x="103.500000" y="76.500000" width="4.500000" height="4.500000" shape-rendering="crispEdges" style="fill:rgb(0,0,0)" />
  <rect x="40.500000" y="81.000000" width="4.500000" height="4.500000" shape-rendering="crispEdges" style="fill:rgb(0,0,0)" />
  <rect x="45.000000" y="81.000000" width="4.500000" height="4.500000" shape-rendering="crispEdges" style="fill:rgb(0,0,0)" />
  <rect x="58.500000" y="81.000000" width="4.500000" height="4.500000" shape-rendering="crispEdges" style="fill:rgb(0,0,0)" />
  <rect x="63.000000" y="81.000000" width="4.500000" height="4.500000" shape-rendering="crispEdges" style="fill:rgb(0,0,0)" />
  <rect x="67.500000" y="81.000000" width="4.500000" height="4.500000" shape-rendering="crispEdges" style="fill:rgb(0,0,0)" />
  <rect x="76.500000" y="81.000000" width="4.500000" height="4.500000" shape-rendering="crispEdges" style="fill:rgb(0,0,0)" />
  <rect x="94.500000" y="81.000000" width="4.500000" height="4.500000" shape-rendering="crispEdges" style="fill:rgb(0,0,0)" />
  <rect x="99.000000" y="81.000000" width="4.500000" height="4.500000" shape-rendering="crispEdges" style="fill:rgb(0,0,0)" />
  <rect x="103.500000" y="81.000000" width="4.500000" height="4.500000" shape-rendering="crispEdges" style="fill:rgb(0,0,0)" />
  <rect x="4.500000" y="85.500000" width="4.500000" height="4.500000" shape-rendering="crispEdges" style="fill:rgb(0,0,0)" />
  <rect x="9.000000" y="85.500000" width="4.500000" height="4.500000" shape-rendering="crispEdges" style="fill:rgb(0,0,0)" />
  <rect x="13.500000" y="85.500000" width="4.500000" height="4.500000" shape-rendering="crispEdges" style="fill:rgb(0,0,0)" />
  <rect x="18.000000" y="85.500000" width="4.500000" height="4.500000" shape-rendering="crispEdges" style="fill:rgb(0,0,0)" />
  <rect x="22.500000" y="85.500000" width="4.500000" height="4.500000" shape-rendering="crispEdges" style="fill:rgb(0,0,0)" />
  <rect x="27.000000" y="85.500000" width="4.500000" height="4.500000" shape-rendering="crispEdges" style="fill:rgb(0,0,0)" />
  <rect x="31.500000" y="85.500000" width="4.500000" height="4.500000" shape-rendering="crispEdges" style="fill:rgb(0,0,0)" />
  <rect x="49.500000" y="85.500000" width="4.500000" height="4.500000" shape-rendering="crispEdges" style="fill:rgb(0,0,0)" />
  <rect x="63.000000" y="85.500000" width="4.500000" height="4.500000" shape-rendering="crispEdges" style="fill:rgb(0,0,0)" />
  <rect x="67.500000" y="85.500000" width="4.500000" height="4.500000" shape-rendering="crispEdges" style="fill:rgb(0,0,0)" />
  <rect x="76.500000" y="85.500000" width="4.500000" height="4.500000" shape-rendering="crispEdges" style="fill:rgb(0,0,0)" />
  <rect x="85.500000" y="85.500000" width="4.500000" height="4.500000" shape-rendering="crispEdges" style="fill:rgb(0,0,0)" />
  <rect x="94.500000" y="85.500000" width="4.500000" height="4.500000" shape-rendering="crispEdges" style="fill:rgb(0,0,0)" />
  <rect x="99.000000" y="85.500000" width="4.500000" height="4.500000" shape-rendering="crispEdges" style="fill:rgb(0,0,0)" />
  <rect x="103.500000" y="85.500000" width="4.500000" height="4.500000" shape-rendering="crispEdges" style="fill:rgb(0,0,0)" />
  <rect x="108.000000" y="85.500000" width="4.500000" height="4.500000" shape-rendering="crispEdges" style="fill:rgb(0,0,0)" />
  <rect x="112.500000" y="85.500000" width="4.500000" height="4.500000" shape-rendering="crispEdges" style="fill:rgb(0,0,0)" />
  <rect x="4.500000" y="90.000000" width="4.500000" height="4.500000" shape-rendering="crispEdges" style="fill:rgb(0,0,0)" />
  <rect x="31.500000" y="90.000000" width="4.500000" height="4.500000" shape-rendering="crispEdges" style="fill:rgb(0,0,0)" />
  <rect x="40.500000" y="90.000000" width="4.500000" height="4.500000" shape-rendering="crispEdges" style="fill:rgb(0,0,0)" />
  <rect x="49.500000" y="90.000000" width="4.500000" height="4.500000" shape-rendering="crispEdges" style="fill:rgb(0,0,0)" />
  <rect x="58.500000" y="90.000000" width="4.500000" height="4.500000" shape-rendering="crispEdges" style="fill:rgb(0,0,0)" />
  <rect x="63.000000" y="90.000000" width="4.500000" height="4.500000" shape-rendering="crispEdges" style="fill:rgb(0,0,0)" />
  <rect x="76.500000" y="90.000000" width="4.500000" height="4.500000" shape-rendering="crispEdges" style="fill:rgb(0,0,0)" />
  <rect x="94.500000" y="90.000000" width="4.500000" height="4.500000" shape-rendering="crispEdges" style="fill:rgb(0,0,0)" />
  <rect x="99.000000" y="90.000000" width="4.500000" height="4.500000" shape-rendering="crispEdges" style="fill:rgb(0,0,0)" />
  <rect x="108.000000" y="90.000000" width="4.500000" height="4.500000" shape-rendering="crispEdges" style="fill:rgb(0,0,0)" />
  <rect x="4.500000" y="94.500000" width="4.500000" height="4.500000" shape-rendering="crispEdges" style="fill:rgb(0,0,0)" />
  <rect x="13.500000" y="94.500000" width="4.500000" height="4.500000" shape-rendering="crispEdges" style="fill:rgb(0,0,0)" />
  <rect x="18.000000" y="94.500000" width="4.500000" height="4.500000" shape-rendering="crispEdges" style="fill:rgb(0,0,0)" />
  <rect x="22.500000" y="94.500000" width="4.500000" height="4.500000" shape-rendering="crispEdges" style="fill:rgb(0,0,0)" />
  <rect x="31.500000" y="94.500000" width="4.500000" height="4.500000" shape-rendering="crispEdges" style="fill:rgb(0,0,0)" />
  <rect x="40.500000" y="94.500000" width="4.500000" height="4.500000" shape-rendering="crispEdges" style="fill:rgb(0,0,0)" />
  <rect x="45.000000" y="94.500000" width="4.500000" height="4.500000" shape-rendering="crispEdges" style="fill:rgb(0,0,0)" />
  <rect x="49.500000" y="94.500000" width="4.500000" height="4.500000" shape-rendering="crispEdges" style="fill:rgb(0,0,0)" />
  <rect x="58.500000" y="94.500000" width="4.500000" height="4.500000" shape-rendering="crispEdges" style="fill:rgb(0,0,0)" />
  <rect x="67.500000" y="94.500000" width="4.500000" height="4.500000" shape-rendering="crispEdges" style="fill:rgb(0,0,0)" />
  <rect x="72.000000" y="94.500000" width="4.500000" height="4.500000" shape-rendering="crispEdges" style="fill:rgb(0,0,0)" />
  <rect x="76.500000" y="94.500000" width="4.500000" height="4.500000" shape-rendering="crispEdges" style="fill:rgb(0,0,0)" />
  <rect x="81.000000" y="94.500000" width="4.500000" height="4.500000" shape-rendering="crispEdges" style="fill:rgb(0,0,0)" />
  <rect x="85.500000" y="94.500000" width="4.500000" height="4.500000" shape-rendering="crispEdges" style="fill:rgb(0,0,0)" />
  <rect x="90.000000" y="94.500000" width="4.500000" height="4.500000" shape-rendering="crispEdges" style="fill:rgb(0,0,0)" />
  <rect x="94.500000" y="94.500000" width="4.500000" height="4.500000" shape-rendering="crispEdges" style="fill:rgb(0,0,0)" />
  <rect x="99.000000" y="94.500000" width="4.500000" height="4.500000" shape-rendering="crispEdges" style="fill:rgb(0,0,0)" />
  <rect x="103.500000" y="94.500000" width="4.500000" height="4.500000" shape-rendering="crispEdges" style="fill:rgb(0,0,0)" />
  <rect x="112.500000" y="94.500000" width="4.500000" height="4.500000" shape-rendering="crispEdges" style="fill:rgb(0,0,0)" />
  <rect x="4.500000" y="99.000000" width="4.500000" height="4.500000" shape-rendering="crispEdges" style="fill:rgb(0,0,0)" />
  <rect x="13.500000" y="99.000000" width="4.500000" height="4.500000" shape-rendering="crispEdges" style="fill:rgb(0,0,0)" />
  <rect x="18.000000" y="99.000000" width="4.500000" height="4.500000" shape-rendering="crispEdges" style="fill:rgb(0,0,0)" />
  <rect x="22.500000" y="99.000000" width="4.500000" height="4.500000" shape-rendering="crispEdges" style="fill:rgb(0,0,0)" />
  <rect x="31.500000" y="99.000000" width="4.500000" height="4.500000" shape-rendering="crispEdges" style="fill:rgb(0,0,0)" />
  <rect x="40.500000" y="99.000000" width="4.500000" height="4.500000" shape-rendering="crispEdges" style="fill:rgb(0,0,0)" />
  <rect x="45.000000" y="99.000000" width="4.500000" height="4.500000" shape-rendering="crispEdges" style="fill:rgb(0,0,0)" />
  <rect x="49.500000" y="99.000000" width="4.500000" height="4.500000" shape-rendering="crispEdges" style="fill:rgb(0,0,0)" />
  <rect x="72.000000" y="99.000000" width="4.500000" height="4.500000" shape-rendering="crispEdges" style="fill:rgb(0,0,0)" />
  <rect x="81.000000" y="99.000000" width="4.500000" height="4.500000" shape-rendering="crispEdges" style="fill:rgb(0,0,0)" />
  <rect x="85.500000" y="99.000000" width="4.500000" height="4.500000" shape-rendering="crispEdges" style="fill:rgb(0,0,0)" />
  <rect x="94.500000" y="99.000000" width="4.500000" height="4.500000" shape-rendering="crispEdges" style="fill:rgb(0,0,0)" />
  <rect x="103.500000" y="99.000000" width="4.500000" height="4.500000" shape-rendering="crispEdges" style="fill:rgb(0,0,0)" />
  <rect x="108.000000" y="99.000000" width="4.500000" height="4.500000" shape-rendering="crispEdges" style="fill:rgb(0,0,0)" />
  <rect x="112.500000" y="99.000000" width="4.500000" height="4.500000" shape-rendering="crispEdges" style="fill:rgb(0,0,0)" />
  <rect x="4.500000" y="103.500000" width="4.500000" height="4.500000" shape-rendering="crispEdges" style="fill:rgb(0,0,0)" />
  <rect x="13.500000" y="103.500000" width="4.500000" height="4.500000" shape-rendering="crispEdges" style="fill:rgb(0,0,0)" />
  <rect x="18.000000" y="103.500000" width="4.500000" height="4.500000" shape-rendering="crispEdges" style="fill:rgb(0,0,0)" />
  <rect x="22.500000" y="103.500000" width="4.500000" height="4.500000" shape-rendering="crispEdges" style="fill:rgb(0,0,0)" />
  <rect x="31.500000" y="103.500000" width="4.500000" height="4.500000" shape-rendering="crispEdges" style="fill:rgb(0,0,0)" />
  <rect x="40.500000" y="103.500000" width="4.500000" height="4.500000" shape-rendering="crispEdges" style="fill:rgb(0,0,0)" />
  <rect x="45.000000" y="103.500000" width="4.500000" height="4.500000" shape-rendering="crispEdges" style="fill:rgb(0,0,0)" />
  <rect x="49.500000" y="103.500000" width="4.500000" height="4.500000" shape-rendering="crispEdges" style="fill:rgb(0,0,0)" />
  <rect x="54.000000" y="103.500000" width="4.500000" height="4.500000" shape-rendering="crispEdges" style="fill:rgb(0,0,0)" />
  <rect x="58.500000" y="103.500000" width="4.500000" height="4.500000" shape-rendering="crispEdges" style="fill:rgb(0,0,0)" />
  <rect x="76.500000" y="103.500000" width="4.500000" height="4.500000" shape-rendering="crispEdges" style="fill:rgb(0,0,0)" />
  <rect x="90.000000" y="103.500000" width="4.500000" height="4.500000" shape-rendering="crispEdges" style="fill:rgb(0,0,0)" />
  <rect x="103.500000" y="103.500000" width="4.500000" height="4.500000" shape-rendering="crispEdges" style="fill:rgb(0,0,0)" />
  <rect x="112.500000" y="103.500000" width="4.500000" height="4.500000" shape-rendering="crispEdges" style="fill:rgb(0,0,0)" />
  <rect x="4.500000" y="108.000000" width="4.500000" height="4.500000" shape-rendering="crispEdges" style="fill:rgb(0,0,0)" />
  <rect x="31.500000" y="108.000000" width="4.500000" height="4.500000" shape-rendering="crispEdges" style="fill:rgb(0,0,0)" />
  <rect x="45.000000" y="108.000000" width="4.500000" height="4.500000" shape-rendering="crispEdges" style="fill:rgb(0,0,0)" />
  <rect x="49.500000" y="108.000000" width="4.500000" height="4.500000" shape-rendering="crispEdges" style="fill:rgb(0,0,0)" />
  <rect x="54.000000" y="108.000000" width="4.500000" height="4.500000" shape-rendering="crispEdges" style="fill:rgb(0,0,0)" />
  <rect x="67.500000" y="108.000000" width="4.500000" height="4.500000" shape-rendering="crispEdges" style="fill:rgb(0,0,0)" />
  <rect x="72.000000" y="108.000000" width="4.500000" height="4.500000" shape-rendering="crispEdges" style="fill:rgb(0,0,0)" />
  <rect x="76.500000" y="108.000000" width="4.500000" height="4.500000" shape-rendering="crispEdges" style="fill:rgb(0,0,0)" />
  <rect x="81.000000" y="108.000000" width="4.500000" height="4.500000" shape-rendering="crispEdges" style="fill:rgb(0,0,0)" />
  <rect x="85.500000" y="108.000000" width="4.500000" height="4.500000" shape-rendering="crispEdges" style="fill:rgb(0,0,0)" />
  <rect x="90.000000" y="108.000000" width="4.500000" height="4.500000" shape-rendering="crispEdges" style="fill:rgb(0,0,0)" />
  <rect x="94.500000" y="108.000000" width="4.500000" height="4.500000" shape-rendering="crispEdges" style="fill:rgb(0,0,0)" />
  <rect x="99.000000" y="108.000000" width="4.500000" height="4.500000" shape-rendering="crispEdges" style="fill:rgb(0,0,0)" />
  <rect x="112.500000" y="108.000000" width="4.500000" height="4.500000" shape-rendering="crispEdges" style="fill:rgb(0,0,0)" />
  <rect x="4.500000" y="112.500000" width="4.500000" height="4.500000" shape-rendering="crispEdges" style="fill:rgb(0,0,0)" />
  <rect x="9.000000" y="112.500000" width="4.500000" height="4.500000" shape-rendering="crispEdges" style="fill:rgb(0,0,0)" />
  <rect x="13.500000" y="112.500000" width="4.500000" height="4.500000" shape-rendering="crispEdges" style="fill:rgb(0,0,0)" />
  <rect x="18.000000" y="112.500000" width="4.500000" height="4.500000" shape-rendering="crispEdges" style="fill:rgb(0,0,0)" />
  <rect x="22.500000" y="112.500000" width="4.500000" height="4.500000" shape-rendering="crispEdges" style="fill:rgb(0,0,0)" />
  <rect x="27.000000" y="112.500000" width="4.500000" height="4.500000" shape-rendering="crispEdges" style="fill:rgb(0,0,0)" />
  <rect x="31.500000" y="112.500000" width="4.500000" height="4.500000" shape-rendering="crispEdges" style="fill:rgb(0,0,0)" />
  <rect x="40.500000" y="112.500000" width="4.500000" height="4.500000" shape-rendering="crispEdges" style="fill:rgb(0,0,0)" />
  <rect x="45.000000" y="112.500000" width="4.500000" height="4.500000" shape-rendering="crispEdges" style="fill:rgb(0,0,0)" />
  <rect x="54.000000" y="112.500000" width="4.500000" height="4.500000" shape-rendering="crispEdges" style="fill:rgb(0,0,0)" />
  <rect x="81.000000" y="112.500000" width="4.500000" height="4.500000" shape-rendering="crispEdges" style="fill:rgb(0,0,0)" />
  <rect x="85.500000" y="112.500000" width="4.500000" height="4.500000" shape-rendering="crispEdges" style="fill:rgb(0,0,0)" />
  <rect x="90.000000" y="112.500000" width="4.500000" height="4.500000" shape-rendering="crispEdges" style="fill:rgb(0,0,0)" />
  <rect x="94.500000" y="112.500000" width="4.500000" height="4.500000" shape-rendering="crispEdges" style="fill:rgb(0,0,0)" />
  <rect x="99.000000" y="112.500000" width="4.500000" height="4.500000" shape-rendering="crispEdges" style="fill:rgb(0,0,0)" />
  <rect x="103.500000" y="112.500000" width="4.500000" height="4.500000" shape-rendering="crispEdges" style="fill:rgb(0,0,0)" />
  <rect x="108.000000" y="112.500000" width="4.500000" height="4.500000" shape-rendering="crispEdges" style="fill:rgb(0,0,0)" />
  <rect x="112.500000" y="112.500000" width="4.500000" height="4.500000" shape-rendering="crispEdges" style="fill:rgb(0,0,0)" />
</svg>
