<?xml version="1.0" standalone="no"?>
<!-- Created with glbarcode++ version 0.0.0 (https://github.com/jimevins/test-glbarcode) -->
<svg xmlns="http://www.w3.org/2000/svg" version="1.1" width="232.344000" height="14.472000" >
  <line x1="9.720000" y1="2.016000" x2="9.720000" y2="8.964000" stroke-width="1.440000" style="stroke:rgb(0,0,0)" />
  <line x1="13.017600" y1="2.016000" x2="13.017600" y2="12.456000" stroke-width="1.440000" style="stroke:rgb(0,0,0)" />
  <line x1="16.315200" y1="5.508000" x2="16.315200" y2="12.456000" stroke-width="1.440000" style="stroke:rgb(0,0,0)" />
  <line x1="19.612800" y1="2.016000" x2="19.612800" y2="8.964000" stroke-width="1.440000" style="stroke:rgb(0,0,0)" />
  <line x1="22.910400" y1="5.508000" x2="22.910400" y2="12.456000" stroke-width="1.440000" style="stroke:rgb(0,0,0)" />
  <line x1="26.208000" y1="2.016000" x2="26.208000" y2="12.456000" stroke-width="1.440000" style="stroke:rgb(0,0,0)" />
  <line x1="29.505600" y1="2.016000" x2="29.505600" y2="8.964000" stroke-width="1.440000" style="stroke:rgb(0,0,0)" />
  <line x1="32.803200" y1="2.016000" x2="32.803200" y2="8.964000" stroke-width="1.440000" style="stroke:rgb(0,0,0)" />
  <line x1="36.100800" y1="2.016000" x2="36.100800" y2="8.964000" stroke-width="1.440000" style="stroke:rgb(0,0,0)" />
  <line x1="39.398400" y1="2.016000" x2="39.398400" y2="12.456000" stroke-width="1.440000" style="stroke:rgb(0,0,0)" />
  <line x1="42.696000" y1="5.508000" x2="42.696000" y2="8.964000" stroke-width="1.440000" style="stroke:rgb(0,0,0)" />
  <line x1="45.993600" y1="5.508000" x2="45.993600" y2="12.456000" stroke-width="1.440000" style="stroke:rgb(0,0,0)" />
  <line x1="49.291200" y1="5.508000" x2="49.291200" y2="12.456000" stroke-width="1.440000" style="stroke:rgb(0,0,0)" />
  <line x1="52.588800" y1="5.508000" x2="52.588800" y2="8.964000" stroke-width="1.440000" style="stroke:rgb(0,0,0)" />
  <line x1="55.886400" y1="5.508000" x2="55.886400" y2="12.456000" stroke-width="1.440000" style="stroke:rgb(0,0,0)" />
  <line x1="59.184000" y1="5.508000" x2="59.184000" y2="12.456000" stroke-width="1.440000" style="stroke:rgb(0,0,0)" />
  <line x1="62.481600" y1="5.508000" x2="62.481600" y2="8.964000" stroke-width="1.440000" style="stroke:rgb(0,0,0)" />
  <line x1="65.779200" y1="2.016000" x2="65.779200" y2="8.964000" stroke-width="1.440000" style="stroke:rgb(0,0,0)" />
  <line x1="69.076800" y1="5.508000" x2="69.076800" y2="8.964000" stroke-width="1.440000" style="stroke:rgb(0,0,0)" />
  <line x1="72.374400" y1="2.016000" x2="72.374400" y2="8.964000" stroke-width="1.440000" style="stroke:rgb(0,0,0)" />
  <line x1="75.672000" y1="5.508000" x2="75.672000" y2="12.456000" stroke-width="1.440000" style="stroke:rgb(0,0,0)" />
  <line x1="78.969600" y1="5.508000" x2="78.969600" y2="12.456000" stroke-width="1.440000" style="stroke:rgb(0,0,0)" />
  <line x1="82.267200" y1="2.016000" x2="82.267200" y2="12.456000" stroke-width="1.440000" style="stroke:rgb(0,0,0)" />
  <line x1="85.564800" y1="2.016000" x2="85.564800" y2="8.964000" stroke-width="1.440000" style="stroke:rgb(0,0,0)" />
  <line x1="88.862400" y1="2.016000" x2="88.862400" y2="8.964000" stroke-width="1.440000" style="stroke:rgb(0,0,0)" />
  <line x1="92.160000" y1="5.508000" x2="92.160000" y2="12.456000" stroke-width="1.440000" style="stroke:rgb(0,0,0)" />
  <line x1="95.457600" y1="2.016000" x2="95.457600" y2="12.456000" stroke-width="1.440000" style="stroke:rgb(0,0,0)" />
  <line x1="98.755200" y1="5.508000" x2="98.755200" y2="12.456000" stroke-width="1.440000" style="stroke:rgb(0,0,0)" />
  <line x1="102.052800" y1="5.508000" x2="102.052800" y2="12.456000" stroke-width="1.440000" style="stroke:rgb(0,0,0)" />
  <line x1="105.350400" y1="2.016000" x2="105.350400" y2="12.456000" stroke-width="1.440000" style="stroke:rgb(0,0,0)" />
  <line x1="108.648000" y1="5.508000" x2="108.648000" y2="8.964000" stroke-width="1.440000" style="stroke:rgb(0,0,0)" />
  <line x1="111.945600" y1="2.016000" x2="111.945600" y2="8.964000" stroke-width="1.440000" style="stroke:rgb(0,0,0)" />
  <line x1="115.243200" y1="2.016000" x2="115.243200" y2="12.456000" stroke-width="1.440000" style="stroke:rgb(0,0,0)" />
  <line x1="118.540800" y1="5.508000" x2="118.540800" y2="8.964000" stroke-width="1.440000" style="stroke:rgb(0,0,0)" />
  <line x1="121.838400" y1="5.508000" x2="121.838400" y2="12.456000" stroke-width="1.440000" style="stroke:rgb(0,0,0)" />
  <line x1="125.136000" y1="5.508000" x2="125.136000" y2="8.964000" stroke-width="1.440000" style="stroke:rgb(0,0,0)" />
  <line x1="128.433600" y1="2.016000" x2="128.433600" y2="8.964000" stroke-width="1.440000" style="stroke:rgb(0,0,0)" />
  <line x1="131.731200" y1="2.016000" x2="131.731200" y2="12.456000" stroke-width="1.440000" style="stroke:rgb(0,0,0)" />
  <line x1="135.028800" y1="5.508000" x2="135.028800" y2="8.964000" stroke-width="1.440000" style="stroke:rgb(0,0,0)" />
  <line x1="138.326400" y1="2.016000" x2="138.326400" y2="12.456000" stroke-width="1.440000" style="stroke:rgb(0,0,0)" />
  <line x1="141.624000" y1="5.508000" x2="141.624000" y2="8.964000" stroke-width="1.440000" style="stroke:rgb(0,0,0)" />
  <line x1="144.921600" y1="5.508000" x2="144.921600" y2="12.456000" stroke-width="1.440000" style="stroke:rgb(0,0,0)" />
  <line x1="148.219200" y1="5.508000" x2="148.219200" y2="8.964000" stroke-width="1.440000" style="stroke:rgb(0,0,0)" />
  <line x1="151.516800" y1="2.016000" x2="151.516800" y2="8.964000" stroke-width="1.440000" style="stroke:rgb(0,0,0)" />
  <line x1="154.814400" y1="5.508000" x2="154.814400" y2="8.964000" stroke-width="1.440000" style="stroke:rgb(0,0,0)" />
  <line x1="158.112000" y1="2.016000" x2="158.112000" y2="12.456000" stroke-width="1.440000" style="stroke:rgb(0,0,0)" />
  <line x1="161.409600" y1="5.508000" x2="161.409600" y2="8.964000" stroke-width="1.440000" style="stroke:rgb(0,0,0)" />
  <line x1="164.707200" y1="2.016000" x2="164.707200" y2="12.456000" stroke-width="1.440000" style="stroke:rgb(0,0,0)" />
  <line x1="168.004800" y1="2.016000" x2="168.004800" y2="8.964000" stroke-width="1.440000" style="stroke:rgb(0,0,0)" />
  <line x1="171.302400" y1="2.016000" x2="171.302400" y2="12.456000" stroke-width="1.440000" style="stroke:rgb(0,0,0)" />
  <line x1="174.600000" y1="5.508000" x2="174.600000" y2="12.456000" stroke-width="1.440000" style="stroke:rgb(0,0,0)" />
  <line x1="177.897600" y1="2.016000" x2="177.897600" y2="12.456000" stroke-width="1.440000" style="stroke:rgb(0,0,0)" />
  <line x1="181.195200" y1="5.508000" x2="181.195200" y2="12.456000" stroke-width="1.440000" style="stroke:rgb(0,0,0)" />
  <line x1="184.492800" y1="2.016000" x2="184.492800" y2="12.456000" stroke-width="1.440000" style="stroke:rgb(0,0,0)" />
  <line x1="187.790400" y1="2.016000" x2="187.790400" y2="12.456000" stroke-width="1.440000" style="stroke:rgb(0,0,0)" />
  <line x1="191.088000" y1="2.016000" x2="191.088000" y2="12.456000" stroke-width="1.440000" style="stroke:rgb(0,0,0)" />
  <line x1="194.385600" y1="2.016000" x2="194.385600" y2="12.456000" stroke-width="1.440000" style="stroke:rgb(0,0,0)" />
  <line x1="197.683200" y1="5.508000" x2="197.683200" y2="8.964000" stroke-width="1.440000" style="stroke:rgb(0,0,0)" />
  <line x1="200.980800" y1="2.016000" x2="200.980800" y2="12.456000" stroke-width="1.440000" style="stroke:rgb(0,0,0)" />
  <line x1="204.278400" y1="2.016000" x2="204.278400" y2="12.456000" stroke-width="1.440000" style="stroke:rgb(0,0,0)" />
  <line x1="207.576000" y1="2.016000" x2="207.576000" y2="12.456000" stroke-width="1.440000" style="stroke:rgb(0,0,0)" />
  <line x1="210.873600" y1="2.016000" x2="210.873600" y2="8.964000" stroke-width="1.440000" style="stroke:rgb(0,0,0)" />
  <line x1="214.171200" y1="5.508000" x2="214.171200" y2="8.964000" stroke-width="1.440000" style="stroke:rgb(0,0,0)" />
  <line x1="217.468800" y1="5.508000" x2="217.468800" y2="12.456000" stroke-width="1.440000" style="stroke:rgb(0,0,0)" />
  <line x1="220.766400" y1="5.508000" x2="220.766400" y2="12.456000" stroke-width="1.440000" style="stroke:rgb(0,0,0)" />
</svg>
