<?xml version="1.0" standalone="no"?>
<!-- Created with glbarcode++ version 0.0.0 (https://github.com/jimevins/glbarcode) -->
<svg xmlns="http://www.w3.org/2000/svg" version="1.1" width="216.000000" height="72.000000" >
  <line x1="12.705882" y1="0.000000" x2="12.705882" y2="48.470588" stroke-width="1.210084" style="stroke:rgb(0,0,0)" />
  <line x1="16.941176" y1="0.000000" x2="16.941176" y2="48.470588" stroke-width="1.210084" style="stroke:rgb(0,0,0)" />
  <line x1="20.268908" y1="0.000000" x2="20.268908" y2="48.470588" stroke-width="3.025210" style="stroke:rgb(0,0,0)" />
  <line x1="24.504202" y1="0.000000" x2="24.504202" y2="48.470588" stroke-width="3.025210" style="stroke:rgb(0,0,0)" />
  <line x1="27.831933" y1="0.000000" x2="27.831933" y2="48.470588" stroke-width="1.210084" style="stroke:rgb(0,0,0)" />
  <line x1="31.159664" y1="0.000000" x2="31.159664" y2="48.470588" stroke-width="3.025210" style="stroke:rgb(0,0,0)" />
  <line x1="34.487395" y1="0.000000" x2="34.487395" y2="48.470588" stroke-width="1.210084" style="stroke:rgb(0,0,0)" />
  <line x1="36.907563" y1="0.000000" x2="36.907563" y2="48.470588" stroke-width="1.210084" style="stroke:rgb(0,0,0)" />
  <line x1="41.142857" y1="0.000000" x2="41.142857" y2="48.470588" stroke-width="1.210084" style="stroke:rgb(0,0,0)" />
  <line x1="44.470588" y1="0.000000" x2="44.470588" y2="48.470588" stroke-width="3.025210" style="stroke:rgb(0,0,0)" />
  <line x1="47.798319" y1="0.000000" x2="47.798319" y2="48.470588" stroke-width="1.210084" style="stroke:rgb(0,0,0)" />
  <line x1="52.033613" y1="0.000000" x2="52.033613" y2="48.470588" stroke-width="1.210084" style="stroke:rgb(0,0,0)" />
  <line x1="54.453782" y1="0.000000" x2="54.453782" y2="48.470588" stroke-width="1.210084" style="stroke:rgb(0,0,0)" />
  <line x1="58.689076" y1="0.000000" x2="58.689076" y2="48.470588" stroke-width="1.210084" style="stroke:rgb(0,0,0)" />
  <line x1="62.924370" y1="0.000000" x2="62.924370" y2="48.470588" stroke-width="1.210084" style="stroke:rgb(0,0,0)" />
  <line x1="65.344538" y1="0.000000" x2="65.344538" y2="48.470588" stroke-width="1.210084" style="stroke:rgb(0,0,0)" />
  <line x1="68.672269" y1="0.000000" x2="68.672269" y2="48.470588" stroke-width="3.025210" style="stroke:rgb(0,0,0)" />
  <line x1="72.000000" y1="0.000000" x2="72.000000" y2="48.470588" stroke-width="1.210084" style="stroke:rgb(0,0,0)" />
  <line x1="76.235294" y1="0.000000" x2="76.235294" y2="48.470588" stroke-width="1.210084" style="stroke:rgb(0,0,0)" />
  <line x1="79.563025" y1="0.000000" x2="79.563025" y2="48.470588" stroke-width="3.025210" style="stroke:rgb(0,0,0)" />
  <line x1="82.890756" y1="0.000000" x2="82.890756" y2="48.470588" stroke-width="1.210084" style="stroke:rgb(0,0,0)" />
  <line x1="87.126050" y1="0.000000" x2="87.126050" y2="48.470588" stroke-width="1.210084" style="stroke:rgb(0,0,0)" />
  <line x1="89.546218" y1="0.000000" x2="89.546218" y2="48.470588" stroke-width="1.210084" style="stroke:rgb(0,0,0)" />
  <line x1="93.781513" y1="0.000000" x2="93.781513" y2="48.470588" stroke-width="1.210084" style="stroke:rgb(0,0,0)" />
  <line x1="98.016807" y1="0.000000" x2="98.016807" y2="48.470588" stroke-width="1.210084" style="stroke:rgb(0,0,0)" />
  <line x1="101.344538" y1="0.000000" x2="101.344538" y2="48.470588" stroke-width="3.025210" style="stroke:rgb(0,0,0)" />
  <line x1="105.579832" y1="0.000000" x2="105.579832" y2="48.470588" stroke-width="3.025210" style="stroke:rgb(0,0,0)" />
  <line x1="108.907563" y1="0.000000" x2="108.907563" y2="48.470588" stroke-width="1.210084" style="stroke:rgb(0,0,0)" />
  <line x1="113.142857" y1="0.000000" x2="113.142857" y2="48.470588" stroke-width="1.210084" style="stroke:rgb(0,0,0)" />
  <line x1="115.563025" y1="0.000000" x2="115.563025" y2="48.470588" stroke-width="1.210084" style="stroke:rgb(0,0,0)" />
  <line x1="118.890756" y1="0.000000" x2="118.890756" y2="48.470588" stroke-width="3.025210" style="stroke:rgb(0,0,0)" />
  <line x1="122.218487" y1="0.000000" x2="122.218487" y2="48.470588" stroke-width="1.210084" style="stroke:rgb(0,0,0)" />
  <line x1="126.453782" y1="0.000000" x2="126.453782" y2="48.470588" stroke-width="1.210084" style="stroke:rgb(0,0,0)" />
  <line x1="128.873950" y1="0.000000" x2="128.873950" y2="48.470588" stroke-width="1.210084" style="stroke:rgb(0,0,0)" />
  <line x1="132.201681" y1="0.000000" x2="132.201681" y2="48.470588" stroke-width="3.025210" style="stroke:rgb(0,0,0)" />
  <line x1="135.529412" y1="0.000000" x2="135.529412" y2="48.470588" stroke-width="1.210084" style="stroke:rgb(0,0,0)" />
  <line x1="138.857143" y1="0.000000" x2="138.857143" y2="48.470588" stroke-width="3.025210" style="stroke:rgb(0,0,0)" />
  <line x1="144.000000" y1="0.000000" x2="144.000000" y2="48.470588" stroke-width="1.210084" style="stroke:rgb(0,0,0)" />
  <line x1="146.420168" y1="0.000000" x2="146.420168" y2="48.470588" stroke-width="1.210084" style="stroke:rgb(0,0,0)" />
  <line x1="149.747899" y1="0.000000" x2="149.747899" y2="48.470588" stroke-width="3.025210" style="stroke:rgb(0,0,0)" />
  <line x1="153.983193" y1="0.000000" x2="153.983193" y2="48.470588" stroke-width="3.025210" style="stroke:rgb(0,0,0)" />
  <line x1="158.218487" y1="0.000000" x2="158.218487" y2="48.470588" stroke-width="3.025210" style="stroke:rgb(0,0,0)" />
  <line x1="163.361345" y1="0.000000" x2="163.361345" y2="48.470588" stroke-width="1.210084" style="stroke:rgb(0,0,0)" />
  <line x1="165.781513" y1="0.000000" x2="165.781513" y2="48.470588" stroke-width="1.210084" style="stroke:rgb(0,0,0)" />
  <line x1="168.201681" y1="0.000000" x2="168.201681" y2="48.470588" stroke-width="1.210084" style="stroke:rgb(0,0,0)" />
  <line x1="170.621849" y1="0.000000" x2="170.621849" y2="48.470588" stroke-width="1.210084" style="stroke:rgb(0,0,0)" />
  <line x1="175.764706" y1="0.000000" x2="175.764706" y2="48.470588" stroke-width="3.025210" style="stroke:rgb(0,0,0)" />
  <line x1="180.000000" y1="0.000000" x2="180.000000" y2="48.470588" stroke-width="3.025210" style="stroke:rgb(0,0,0)" />
  <line x1="183.327731" y1="0.000000" x2="183.327731" y2="48.470588" stroke-width="1.210084" style="stroke:rgb(0,0,0)" />
  <line x1="185.747899" y1="0.000000" x2="185.747899" y2="48.470588" stroke-width="1.210084" style="stroke:rgb(0,0,0)" />
  <line x1="188.168067" y1="0.000000" x2="188.168067" y2="48.470588" stroke-width="1.210084" style="stroke:rgb(0,0,0)" />
  <line x1="192.403361" y1="0.000000" x2="192.403361" y2="48.470588" stroke-width="1.210084" style="stroke:rgb(0,0,0)" />
  <line x1="195.731092" y1="0.000000" x2="195.731092" y2="48.470588" stroke-width="3.025210" style="stroke:rgb(0,0,0)" />
  <line x1="199.966387" y1="0.000000" x2="199.966387" y2="48.470588" stroke-width="3.025210" style="stroke:rgb(0,0,0)" />
  <line x1="203.294118" y1="0.000000" x2="203.294118" y2="48.470588" stroke-width="1.210084" style="stroke:rgb(0,0,0)" />
  <text x="108.000000" y="66.117647" font-size="16.806723" style="font-family:monospace;text-anchor:middle;fill:rgb(0,0,0)" >*Abc123*</text>
</svg>
