<?xml version="1.0" standalone="no"?>
<!-- Created with glbarcode++ version 0.0.0 (https://github.com/jimevins/glbarcode) -->
<svg xmlns="http://www.w3.org/2000/svg" version="1.1" width="220.888800" height="14.760000" >
  <line x1="9.720000" y1="2.880000" x2="9.720000" y2="11.880000" stroke-width="1.440000" style="stroke:rgb(0,0,0)" />
  <line x1="12.992400" y1="8.280000" x2="12.992400" y2="11.880000" stroke-width="1.440000" style="stroke:rgb(0,0,0)" />
  <line x1="16.264800" y1="8.280000" x2="16.264800" y2="11.880000" stroke-width="1.440000" style="stroke:rgb(0,0,0)" />
  <line x1="19.537200" y1="8.280000" x2="19.537200" y2="11.880000" stroke-width="1.440000" style="stroke:rgb(0,0,0)" />
  <line x1="22.809600" y1="2.880000" x2="22.809600" y2="11.880000" stroke-width="1.440000" style="stroke:rgb(0,0,0)" />
  <line x1="26.082000" y1="2.880000" x2="26.082000" y2="11.880000" stroke-width="1.440000" style="stroke:rgb(0,0,0)" />
  <line x1="29.354400" y1="8.280000" x2="29.354400" y2="11.880000" stroke-width="1.440000" style="stroke:rgb(0,0,0)" />
  <line x1="32.626800" y1="8.280000" x2="32.626800" y2="11.880000" stroke-width="1.440000" style="stroke:rgb(0,0,0)" />
  <line x1="35.899200" y1="2.880000" x2="35.899200" y2="11.880000" stroke-width="1.440000" style="stroke:rgb(0,0,0)" />
  <line x1="39.171600" y1="8.280000" x2="39.171600" y2="11.880000" stroke-width="1.440000" style="stroke:rgb(0,0,0)" />
  <line x1="42.444000" y1="2.880000" x2="42.444000" y2="11.880000" stroke-width="1.440000" style="stroke:rgb(0,0,0)" />
  <line x1="45.716400" y1="8.280000" x2="45.716400" y2="11.880000" stroke-width="1.440000" style="stroke:rgb(0,0,0)" />
  <line x1="48.988800" y1="8.280000" x2="48.988800" y2="11.880000" stroke-width="1.440000" style="stroke:rgb(0,0,0)" />
  <line x1="52.261200" y1="2.880000" x2="52.261200" y2="11.880000" stroke-width="1.440000" style="stroke:rgb(0,0,0)" />
  <line x1="55.533600" y1="2.880000" x2="55.533600" y2="11.880000" stroke-width="1.440000" style="stroke:rgb(0,0,0)" />
  <line x1="58.806000" y1="8.280000" x2="58.806000" y2="11.880000" stroke-width="1.440000" style="stroke:rgb(0,0,0)" />
  <line x1="62.078400" y1="8.280000" x2="62.078400" y2="11.880000" stroke-width="1.440000" style="stroke:rgb(0,0,0)" />
  <line x1="65.350800" y1="2.880000" x2="65.350800" y2="11.880000" stroke-width="1.440000" style="stroke:rgb(0,0,0)" />
  <line x1="68.623200" y1="8.280000" x2="68.623200" y2="11.880000" stroke-width="1.440000" style="stroke:rgb(0,0,0)" />
  <line x1="71.895600" y1="8.280000" x2="71.895600" y2="11.880000" stroke-width="1.440000" style="stroke:rgb(0,0,0)" />
  <line x1="75.168000" y1="2.880000" x2="75.168000" y2="11.880000" stroke-width="1.440000" style="stroke:rgb(0,0,0)" />
  <line x1="78.440400" y1="8.280000" x2="78.440400" y2="11.880000" stroke-width="1.440000" style="stroke:rgb(0,0,0)" />
  <line x1="81.712800" y1="2.880000" x2="81.712800" y2="11.880000" stroke-width="1.440000" style="stroke:rgb(0,0,0)" />
  <line x1="84.985200" y1="8.280000" x2="84.985200" y2="11.880000" stroke-width="1.440000" style="stroke:rgb(0,0,0)" />
  <line x1="88.257600" y1="2.880000" x2="88.257600" y2="11.880000" stroke-width="1.440000" style="stroke:rgb(0,0,0)" />
  <line x1="91.530000" y1="8.280000" x2="91.530000" y2="11.880000" stroke-width="1.440000" style="stroke:rgb(0,0,0)" />
  <line x1="94.802400" y1="8.280000" x2="94.802400" y2="11.880000" stroke-width="1.440000" style="stroke:rgb(0,0,0)" />
  <line x1="98.074800" y1="2.880000" x2="98.074800" y2="11.880000" stroke-width="1.440000" style="stroke:rgb(0,0,0)" />
  <line x1="101.347200" y1="2.880000" x2="101.347200" y2="11.880000" stroke-width="1.440000" style="stroke:rgb(0,0,0)" />
  <line x1="104.619600" y1="8.280000" x2="104.619600" y2="11.880000" stroke-width="1.440000" style="stroke:rgb(0,0,0)" />
  <line x1="107.892000" y1="8.280000" x2="107.892000" y2="11.880000" stroke-width="1.440000" style="stroke:rgb(0,0,0)" />
  <line x1="111.164400" y1="2.880000" x2="111.164400" y2="11.880000" stroke-width="1.440000" style="stroke:rgb(0,0,0)" />
  <line x1="114.436800" y1="8.280000" x2="114.436800" y2="11.880000" stroke-width="1.440000" style="stroke:rgb(0,0,0)" />
  <line x1="117.709200" y1="8.280000" x2="117.709200" y2="11.880000" stroke-width="1.440000" style="stroke:rgb(0,0,0)" />
  <line x1="120.981600" y1="8.280000" x2="120.981600" y2="11.880000" stroke-width="1.440000" style="stroke:rgb(0,0,0)" />
  <line x1="124.254000" y1="2.880000" x2="124.254000" y2="11.880000" stroke-width="1.440000" style="stroke:rgb(0,0,0)" />
  <line x1="127.526400" y1="2.880000" x2="127.526400" y2="11.880000" stroke-width="1.440000" style="stroke:rgb(0,0,0)" />
  <line x1="130.798800" y1="8.280000" x2="130.798800" y2="11.880000" stroke-width="1.440000" style="stroke:rgb(0,0,0)" />
  <line x1="134.071200" y1="8.280000" x2="134.071200" y2="11.880000" stroke-width="1.440000" style="stroke:rgb(0,0,0)" />
  <line x1="137.343600" y1="2.880000" x2="137.343600" y2="11.880000" stroke-width="1.440000" style="stroke:rgb(0,0,0)" />
  <line x1="140.616000" y1="8.280000" x2="140.616000" y2="11.880000" stroke-width="1.440000" style="stroke:rgb(0,0,0)" />
  <line x1="143.888400" y1="2.880000" x2="143.888400" y2="11.880000" stroke-width="1.440000" style="stroke:rgb(0,0,0)" />
  <line x1="147.160800" y1="8.280000" x2="147.160800" y2="11.880000" stroke-width="1.440000" style="stroke:rgb(0,0,0)" />
  <line x1="150.433200" y1="2.880000" x2="150.433200" y2="11.880000" stroke-width="1.440000" style="stroke:rgb(0,0,0)" />
  <line x1="153.705600" y1="8.280000" x2="153.705600" y2="11.880000" stroke-width="1.440000" style="stroke:rgb(0,0,0)" />
  <line x1="156.978000" y1="8.280000" x2="156.978000" y2="11.880000" stroke-width="1.440000" style="stroke:rgb(0,0,0)" />
  <line x1="160.250400" y1="2.880000" x2="160.250400" y2="11.880000" stroke-width="1.440000" style="stroke:rgb(0,0,0)" />
  <line x1="163.522800" y1="2.880000" x2="163.522800" y2="11.880000" stroke-width="1.440000" style="stroke:rgb(0,0,0)" />
  <line x1="166.795200" y1="8.280000" x2="166.795200" y2="11.880000" stroke-width="1.440000" style="stroke:rgb(0,0,0)" />
  <line x1="170.067600" y1="8.280000" x2="170.067600" y2="11.880000" stroke-width="1.440000" style="stroke:rgb(0,0,0)" />
  <line x1="173.340000" y1="8.280000" x2="173.340000" y2="11.880000" stroke-width="1.440000" style="stroke:rgb(0,0,0)" />
  <line x1="176.612400" y1="8.280000" x2="176.612400" y2="11.880000" stroke-width="1.440000" style="stroke:rgb(0,0,0)" />
  <line x1="179.884800" y1="8.280000" x2="179.884800" y2="11.880000" stroke-width="1.440000" style="stroke:rgb(0,0,0)" />
  <line x1="183.157200" y1="8.280000" x2="183.157200" y2="11.880000" stroke-width="1.440000" style="stroke:rgb(0,0,0)" />
  <line x1="186.429600" y1="2.880000" x2="186.429600" y2="11.880000" stroke-width="1.440000" style="stroke:rgb(0,0,0)" />
  <line x1="189.702000" y1="2.880000" x2="189.702000" y2="11.880000" stroke-width="1.440000" style="stroke:rgb(0,0,0)" />
  <line x1="192.974400" y1="8.280000" x2="192.974400" y2="11.880000" stroke-width="1.440000" style="stroke:rgb(0,0,0)" />
  <line x1="196.246800" y1="2.880000" x2="196.246800" y2="11.880000" stroke-width="1.440000" style="stroke:rgb(0,0,0)" />
  <line x1="199.519200" y1="8.280000" x2="199.519200" y2="11.880000" stroke-width="1.440000" style="stroke:rgb(0,0,0)" />
  <line x1="202.791600" y1="8.280000" x2="202.791600" y2="11.880000" stroke-width="1.440000" style="stroke:rgb(0,0,0)" />
  <line x1="206.064000" y1="2.880000" x2="206.064000" y2="11.880000" stroke-width="1.440000" style="stroke:rgb(0,0,0)" />
  <line x1="209.336400" y1="2.880000" x2="209.336400" y2="11.880000" stroke-width="1.440000" style="stroke:rgb(0,0,0)" />
</svg>
