<?xml version="1.0" standalone="no"?>
<!-- Created with glbarcode++ version 0.0.0 (https://github.com/jimevins/test-glbarcode) -->
<svg xmlns="http://www.w3.org/2000/svg" version="1.1" width="162.000000" height="102.902655" >
  <line x1="13.619469" y1="0.000000" x2="13.619469" y2="91.951327" stroke-width="1.433628" style="stroke:rgb(0,0,0)" />
  <line x1="16.486726" y1="0.000000" x2="16.486726" y2="91.951327" stroke-width="1.433628" style="stroke:rgb(0,0,0)" />
  <line x1="21.504425" y1="0.000000" x2="21.504425" y2="91.951327" stroke-width="2.867257" style="stroke:rgb(0,0,0)" />
  <line x1="26.522124" y1="0.000000" x2="26.522124" y2="91.951327" stroke-width="1.433628" style="stroke:rgb(0,0,0)" />
  <line x1="30.823009" y1="0.000000" x2="30.823009" y2="81.000000" stroke-width="1.433628" style="stroke:rgb(0,0,0)" />
  <line x1="35.840708" y1="0.000000" x2="35.840708" y2="81.000000" stroke-width="2.867257" style="stroke:rgb(0,0,0)" />
  <line x1="41.575221" y1="0.000000" x2="41.575221" y2="81.000000" stroke-width="5.734513" style="stroke:rgb(0,0,0)" />
  <line x1="46.592920" y1="0.000000" x2="46.592920" y2="81.000000" stroke-width="1.433628" style="stroke:rgb(0,0,0)" />
  <line x1="49.460177" y1="0.000000" x2="49.460177" y2="81.000000" stroke-width="1.433628" style="stroke:rgb(0,0,0)" />
  <line x1="55.911504" y1="0.000000" x2="55.911504" y2="81.000000" stroke-width="2.867257" style="stroke:rgb(0,0,0)" />
  <line x1="60.212389" y1="0.000000" x2="60.212389" y2="81.000000" stroke-width="2.867257" style="stroke:rgb(0,0,0)" />
  <line x1="66.663717" y1="0.000000" x2="66.663717" y2="81.000000" stroke-width="1.433628" style="stroke:rgb(0,0,0)" />
  <line x1="69.530973" y1="0.000000" x2="69.530973" y2="81.000000" stroke-width="1.433628" style="stroke:rgb(0,0,0)" />
  <line x1="74.548673" y1="0.000000" x2="74.548673" y2="81.000000" stroke-width="5.734513" style="stroke:rgb(0,0,0)" />
  <line x1="79.566372" y1="0.000000" x2="79.566372" y2="91.951327" stroke-width="1.433628" style="stroke:rgb(0,0,0)" />
  <line x1="82.433628" y1="0.000000" x2="82.433628" y2="91.951327" stroke-width="1.433628" style="stroke:rgb(0,0,0)" />
  <line x1="85.300885" y1="0.000000" x2="85.300885" y2="81.000000" stroke-width="1.433628" style="stroke:rgb(0,0,0)" />
  <line x1="91.035398" y1="0.000000" x2="91.035398" y2="81.000000" stroke-width="1.433628" style="stroke:rgb(0,0,0)" />
  <line x1="95.336283" y1="0.000000" x2="95.336283" y2="81.000000" stroke-width="1.433628" style="stroke:rgb(0,0,0)" />
  <line x1="99.637168" y1="0.000000" x2="99.637168" y2="81.000000" stroke-width="1.433628" style="stroke:rgb(0,0,0)" />
  <line x1="106.805310" y1="0.000000" x2="106.805310" y2="81.000000" stroke-width="4.300885" style="stroke:rgb(0,0,0)" />
  <line x1="111.106195" y1="0.000000" x2="111.106195" y2="81.000000" stroke-width="1.433628" style="stroke:rgb(0,0,0)" />
  <line x1="116.840708" y1="0.000000" x2="116.840708" y2="81.000000" stroke-width="4.300885" style="stroke:rgb(0,0,0)" />
  <line x1="122.575221" y1="0.000000" x2="122.575221" y2="81.000000" stroke-width="1.433628" style="stroke:rgb(0,0,0)" />
  <line x1="126.159292" y1="0.000000" x2="126.159292" y2="81.000000" stroke-width="2.867257" style="stroke:rgb(0,0,0)" />
  <line x1="131.893805" y1="0.000000" x2="131.893805" y2="81.000000" stroke-width="2.867257" style="stroke:rgb(0,0,0)" />
  <line x1="136.194690" y1="0.000000" x2="136.194690" y2="91.951327" stroke-width="2.867257" style="stroke:rgb(0,0,0)" />
  <line x1="140.495575" y1="0.000000" x2="140.495575" y2="91.951327" stroke-width="2.867257" style="stroke:rgb(0,0,0)" />
  <line x1="145.513274" y1="0.000000" x2="145.513274" y2="91.951327" stroke-width="1.433628" style="stroke:rgb(0,0,0)" />
  <line x1="148.380531" y1="0.000000" x2="148.380531" y2="91.951327" stroke-width="1.433628" style="stroke:rgb(0,0,0)" />
  <text x="6.451327" y="97.178097" font-size="10.453540" style="font-family:monospace;text-anchor:middle;fill:rgb(0,0,0)" >1</text>
  <text x="52.685841" y="98.920354" font-size="13.938053" style="font-family:monospace;text-anchor:middle;fill:rgb(0,0,0)" >23456</text>
  <text x="109.314159" y="98.920354" font-size="13.938053" style="font-family:monospace;text-anchor:middle;fill:rgb(0,0,0)" >78901</text>
  <text x="155.548673" y="97.178097" font-size="10.453540" style="font-family:monospace;text-anchor:middle;fill:rgb(0,0,0)" >2</text>
</svg>
