<?xml version="1.0" standalone="no"?>
<!-- Created with glbarcode++ version 0.0.0 (https://github.com/jimevins/test-glbarcode) -->
<svg xmlns="http://www.w3.org/2000/svg" version="1.1" width="128.520000" height="32.000000" >
  <line x1="7.560000" y1="0.000000" x2="7.560000" y2="18.000000" stroke-width="0.720000" style="stroke:rgb(0,0,0)" />
  <line x1="10.080000" y1="0.000000" x2="10.080000" y2="18.000000" stroke-width="0.720000" style="stroke:rgb(0,0,0)" />
  <line x1="12.060000" y1="0.000000" x2="12.060000" y2="18.000000" stroke-width="1.800000" style="stroke:rgb(0,0,0)" />
  <line x1="14.580000" y1="0.000000" x2="14.580000" y2="18.000000" stroke-width="1.800000" style="stroke:rgb(0,0,0)" />
  <line x1="16.560000" y1="0.000000" x2="16.560000" y2="18.000000" stroke-width="0.720000" style="stroke:rgb(0,0,0)" />
  <line x1="18.540000" y1="0.000000" x2="18.540000" y2="18.000000" stroke-width="1.800000" style="stroke:rgb(0,0,0)" />
  <line x1="20.520000" y1="0.000000" x2="20.520000" y2="18.000000" stroke-width="0.720000" style="stroke:rgb(0,0,0)" />
  <line x1="21.960000" y1="0.000000" x2="21.960000" y2="18.000000" stroke-width="0.720000" style="stroke:rgb(0,0,0)" />
  <line x1="24.480000" y1="0.000000" x2="24.480000" y2="18.000000" stroke-width="0.720000" style="stroke:rgb(0,0,0)" />
  <line x1="26.460000" y1="0.000000" x2="26.460000" y2="18.000000" stroke-width="1.800000" style="stroke:rgb(0,0,0)" />
  <line x1="28.440000" y1="0.000000" x2="28.440000" y2="18.000000" stroke-width="0.720000" style="stroke:rgb(0,0,0)" />
  <line x1="30.960000" y1="0.000000" x2="30.960000" y2="18.000000" stroke-width="0.720000" style="stroke:rgb(0,0,0)" />
  <line x1="32.400000" y1="0.000000" x2="32.400000" y2="18.000000" stroke-width="0.720000" style="stroke:rgb(0,0,0)" />
  <line x1="34.920000" y1="0.000000" x2="34.920000" y2="18.000000" stroke-width="0.720000" style="stroke:rgb(0,0,0)" />
  <line x1="37.440000" y1="0.000000" x2="37.440000" y2="18.000000" stroke-width="0.720000" style="stroke:rgb(0,0,0)" />
  <line x1="38.880000" y1="0.000000" x2="38.880000" y2="18.000000" stroke-width="0.720000" style="stroke:rgb(0,0,0)" />
  <line x1="40.860000" y1="0.000000" x2="40.860000" y2="18.000000" stroke-width="1.800000" style="stroke:rgb(0,0,0)" />
  <line x1="42.840000" y1="0.000000" x2="42.840000" y2="18.000000" stroke-width="0.720000" style="stroke:rgb(0,0,0)" />
  <line x1="45.360000" y1="0.000000" x2="45.360000" y2="18.000000" stroke-width="0.720000" style="stroke:rgb(0,0,0)" />
  <line x1="47.340000" y1="0.000000" x2="47.340000" y2="18.000000" stroke-width="1.800000" style="stroke:rgb(0,0,0)" />
  <line x1="49.320000" y1="0.000000" x2="49.320000" y2="18.000000" stroke-width="0.720000" style="stroke:rgb(0,0,0)" />
  <line x1="51.840000" y1="0.000000" x2="51.840000" y2="18.000000" stroke-width="0.720000" style="stroke:rgb(0,0,0)" />
  <line x1="53.280000" y1="0.000000" x2="53.280000" y2="18.000000" stroke-width="0.720000" style="stroke:rgb(0,0,0)" />
  <line x1="55.800000" y1="0.000000" x2="55.800000" y2="18.000000" stroke-width="0.720000" style="stroke:rgb(0,0,0)" />
  <line x1="58.320000" y1="0.000000" x2="58.320000" y2="18.000000" stroke-width="0.720000" style="stroke:rgb(0,0,0)" />
  <line x1="60.300000" y1="0.000000" x2="60.300000" y2="18.000000" stroke-width="1.800000" style="stroke:rgb(0,0,0)" />
  <line x1="62.820000" y1="0.000000" x2="62.820000" y2="18.000000" stroke-width="1.800000" style="stroke:rgb(0,0,0)" />
  <line x1="64.800000" y1="0.000000" x2="64.800000" y2="18.000000" stroke-width="0.720000" style="stroke:rgb(0,0,0)" />
  <line x1="67.320000" y1="0.000000" x2="67.320000" y2="18.000000" stroke-width="0.720000" style="stroke:rgb(0,0,0)" />
  <line x1="68.760000" y1="0.000000" x2="68.760000" y2="18.000000" stroke-width="0.720000" style="stroke:rgb(0,0,0)" />
  <line x1="70.740000" y1="0.000000" x2="70.740000" y2="18.000000" stroke-width="1.800000" style="stroke:rgb(0,0,0)" />
  <line x1="72.720000" y1="0.000000" x2="72.720000" y2="18.000000" stroke-width="0.720000" style="stroke:rgb(0,0,0)" />
  <line x1="75.240000" y1="0.000000" x2="75.240000" y2="18.000000" stroke-width="0.720000" style="stroke:rgb(0,0,0)" />
  <line x1="76.680000" y1="0.000000" x2="76.680000" y2="18.000000" stroke-width="0.720000" style="stroke:rgb(0,0,0)" />
  <line x1="78.660000" y1="0.000000" x2="78.660000" y2="18.000000" stroke-width="1.800000" style="stroke:rgb(0,0,0)" />
  <line x1="80.640000" y1="0.000000" x2="80.640000" y2="18.000000" stroke-width="0.720000" style="stroke:rgb(0,0,0)" />
  <line x1="82.620000" y1="0.000000" x2="82.620000" y2="18.000000" stroke-width="1.800000" style="stroke:rgb(0,0,0)" />
  <line x1="85.680000" y1="0.000000" x2="85.680000" y2="18.000000" stroke-width="0.720000" style="stroke:rgb(0,0,0)" />
  <line x1="87.120000" y1="0.000000" x2="87.120000" y2="18.000000" stroke-width="0.720000" style="stroke:rgb(0,0,0)" />
  <line x1="89.100000" y1="0.000000" x2="89.100000" y2="18.000000" stroke-width="1.800000" style="stroke:rgb(0,0,0)" />
  <line x1="91.620000" y1="0.000000" x2="91.620000" y2="18.000000" stroke-width="1.800000" style="stroke:rgb(0,0,0)" />
  <line x1="94.140000" y1="0.000000" x2="94.140000" y2="18.000000" stroke-width="1.800000" style="stroke:rgb(0,0,0)" />
  <line x1="97.200000" y1="0.000000" x2="97.200000" y2="18.000000" stroke-width="0.720000" style="stroke:rgb(0,0,0)" />
  <line x1="98.640000" y1="0.000000" x2="98.640000" y2="18.000000" stroke-width="0.720000" style="stroke:rgb(0,0,0)" />
  <line x1="100.080000" y1="0.000000" x2="100.080000" y2="18.000000" stroke-width="0.720000" style="stroke:rgb(0,0,0)" />
  <line x1="101.520000" y1="0.000000" x2="101.520000" y2="18.000000" stroke-width="0.720000" style="stroke:rgb(0,0,0)" />
  <line x1="104.580000" y1="0.000000" x2="104.580000" y2="18.000000" stroke-width="1.800000" style="stroke:rgb(0,0,0)" />
  <line x1="107.100000" y1="0.000000" x2="107.100000" y2="18.000000" stroke-width="1.800000" style="stroke:rgb(0,0,0)" />
  <line x1="109.080000" y1="0.000000" x2="109.080000" y2="18.000000" stroke-width="0.720000" style="stroke:rgb(0,0,0)" />
  <line x1="110.520000" y1="0.000000" x2="110.520000" y2="18.000000" stroke-width="0.720000" style="stroke:rgb(0,0,0)" />
  <line x1="111.960000" y1="0.000000" x2="111.960000" y2="18.000000" stroke-width="0.720000" style="stroke:rgb(0,0,0)" />
  <line x1="114.480000" y1="0.000000" x2="114.480000" y2="18.000000" stroke-width="0.720000" style="stroke:rgb(0,0,0)" />
  <line x1="116.460000" y1="0.000000" x2="116.460000" y2="18.000000" stroke-width="1.800000" style="stroke:rgb(0,0,0)" />
  <line x1="118.980000" y1="0.000000" x2="118.980000" y2="18.000000" stroke-width="1.800000" style="stroke:rgb(0,0,0)" />
  <line x1="120.960000" y1="0.000000" x2="120.960000" y2="18.000000" stroke-width="0.720000" style="stroke:rgb(0,0,0)" />
  <text x="64.260000" y="30.000000" font-size="10.000000" style="font-family:monospace;text-anchor:middle;fill:rgb(0,0,0)" >*Abc123*</text>
</svg>
