<?xml version="1.0" standalone="no"?>
<!-- Created with glbarcode++ version 0.0.0 (https://github.com/jimevins/test-glbarcode) -->
<svg xmlns="http://www.w3.org/2000/svg" version="1.1" width="122.716800" height="14.760000" >
  <line x1="9.720000" y1="2.880000" x2="9.720000" y2="11.880000" stroke-width="1.440000" style="stroke:rgb(0,0,0)" />
  <line x1="12.992400" y1="8.280000" x2="12.992400" y2="11.880000" stroke-width="1.440000" style="stroke:rgb(0,0,0)" />
  <line x1="16.264800" y1="8.280000" x2="16.264800" y2="11.880000" stroke-width="1.440000" style="stroke:rgb(0,0,0)" />
  <line x1="19.537200" y1="8.280000" x2="19.537200" y2="11.880000" stroke-width="1.440000" style="stroke:rgb(0,0,0)" />
  <line x1="22.809600" y1="2.880000" x2="22.809600" y2="11.880000" stroke-width="1.440000" style="stroke:rgb(0,0,0)" />
  <line x1="26.082000" y1="2.880000" x2="26.082000" y2="11.880000" stroke-width="1.440000" style="stroke:rgb(0,0,0)" />
  <line x1="29.354400" y1="8.280000" x2="29.354400" y2="11.880000" stroke-width="1.440000" style="stroke:rgb(0,0,0)" />
  <line x1="32.626800" y1="8.280000" x2="32.626800" y2="11.880000" stroke-width="1.440000" style="stroke:rgb(0,0,0)" />
  <line x1="35.899200" y1="2.880000" x2="35.899200" y2="11.880000" stroke-width="1.440000" style="stroke:rgb(0,0,0)" />
  <line x1="39.171600" y1="8.280000" x2="39.171600" y2="11.880000" stroke-width="1.440000" style="stroke:rgb(0,0,0)" />
  <line x1="42.444000" y1="2.880000" x2="42.444000" y2="11.880000" stroke-width="1.440000" style="stroke:rgb(0,0,0)" />
  <line x1="45.716400" y1="8.280000" x2="45.716400" y2="11.880000" stroke-width="1.440000" style="stroke:rgb(0,0,0)" />
  <line x1="48.988800" y1="8.280000" x2="48.988800" y2="11.880000" stroke-width="1.440000" style="stroke:rgb(0,0,0)" />
  <line x1="52.261200" y1="2.880000" x2="52.261200" y2="11.880000" stroke-width="1.440000" style="stroke:rgb(0,0,0)" />
  <line x1="55.533600" y1="2.880000" x2="55.533600" y2="11.880000" stroke-width="1.440000" style="stroke:rgb(0,0,0)" />
  <line x1="58.806000" y1="8.280000" x2="58.806000" y2="11.880000" stroke-width="1.440000" style="stroke:rgb(0,0,0)" />
  <line x1="62.078400" y1="8.280000" x2="62.078400" y2="11.880000" stroke-width="1.440000" style="stroke:rgb(0,0,0)" />
  <line x1="65.350800" y1="2.880000" x2="65.350800" y2="11.880000" stroke-width="1.440000" style="stroke:rgb(0,0,0)" />
  <line x1="68.623200" y1="8.280000" x2="68.623200" y2="11.880000" stroke-width="1.440000" style="stroke:rgb(0,0,0)" />
  <line x1="71.895600" y1="8.280000" x2="71.895600" y2="11.880000" stroke-width="1.440000" style="stroke:rgb(0,0,0)" />
  <line x1="75.168000" y1="2.880000" x2="75.168000" y2="11.880000" stroke-width="1.440000" style="stroke:rgb(0,0,0)" />
  <line x1="78.440400" y1="8.280000" x2="78.440400" y2="11.880000" stroke-width="1.440000" style="stroke:rgb(0,0,0)" />
  <line x1="81.712800" y1="2.880000" x2="81.712800" y2="11.880000" stroke-width="1.440000" style="stroke:rgb(0,0,0)" />
  <line x1="84.985200" y1="8.280000" x2="84.985200" y2="11.880000" stroke-width="1.440000" style="stroke:rgb(0,0,0)" />
  <line x1="88.257600" y1="2.880000" x2="88.257600" y2="11.880000" stroke-width="1.440000" style="stroke:rgb(0,0,0)" />
  <line x1="91.530000" y1="8.280000" x2="91.530000" y2="11.880000" stroke-width="1.440000" style="stroke:rgb(0,0,0)" />
  <line x1="94.802400" y1="8.280000" x2="94.802400" y2="11.880000" stroke-width="1.440000" style="stroke:rgb(0,0,0)" />
  <line x1="98.074800" y1="2.880000" x2="98.074800" y2="11.880000" stroke-width="1.440000" style="stroke:rgb(0,0,0)" />
  <line x1="101.347200" y1="8.280000" x2="101.347200" y2="11.880000" stroke-width="1.440000" style="stroke:rgb(0,0,0)" />
  <line x1="104.619600" y1="2.880000" x2="104.619600" y2="11.880000" stroke-width="1.440000" style="stroke:rgb(0,0,0)" />
  <line x1="107.892000" y1="8.280000" x2="107.892000" y2="11.880000" stroke-width="1.440000" style="stroke:rgb(0,0,0)" />
  <line x1="111.164400" y1="2.880000" x2="111.164400" y2="11.880000" stroke-width="1.440000" style="stroke:rgb(0,0,0)" />
</svg>
