<?xml version="1.0" standalone="no"?>
<!-- Created with glbarcode++ version 0.0.0 (https://github.com/jimevins/test-glbarcode) -->
<svg xmlns="http://www.w3.org/2000/svg" version="1.1" width="81.360000" height="51.680000" >
  <line x1="6.840000" y1="0.000000" x2="6.840000" y2="46.180000" stroke-width="0.720000" style="stroke:rgb(0,0,0)" />
  <line x1="8.280000" y1="0.000000" x2="8.280000" y2="46.180000" stroke-width="0.720000" style="stroke:rgb(0,0,0)" />
  <line x1="10.440000" y1="0.000000" x2="10.440000" y2="40.680000" stroke-width="0.720000" style="stroke:rgb(0,0,0)" />
  <line x1="12.960000" y1="0.000000" x2="12.960000" y2="40.680000" stroke-width="1.440000" style="stroke:rgb(0,0,0)" />
  <line x1="15.840000" y1="0.000000" x2="15.840000" y2="40.680000" stroke-width="2.880000" style="stroke:rgb(0,0,0)" />
  <line x1="18.360000" y1="0.000000" x2="18.360000" y2="40.680000" stroke-width="0.720000" style="stroke:rgb(0,0,0)" />
  <line x1="21.240000" y1="0.000000" x2="21.240000" y2="40.680000" stroke-width="2.160000" style="stroke:rgb(0,0,0)" />
  <line x1="23.400000" y1="0.000000" x2="23.400000" y2="40.680000" stroke-width="0.720000" style="stroke:rgb(0,0,0)" />
  <line x1="25.200000" y1="0.000000" x2="25.200000" y2="40.680000" stroke-width="1.440000" style="stroke:rgb(0,0,0)" />
  <line x1="28.440000" y1="0.000000" x2="28.440000" y2="40.680000" stroke-width="0.720000" style="stroke:rgb(0,0,0)" />
  <line x1="32.040000" y1="0.000000" x2="32.040000" y2="40.680000" stroke-width="0.720000" style="stroke:rgb(0,0,0)" />
  <line x1="33.480000" y1="0.000000" x2="33.480000" y2="40.680000" stroke-width="0.720000" style="stroke:rgb(0,0,0)" />
  <line x1="35.640000" y1="0.000000" x2="35.640000" y2="40.680000" stroke-width="0.720000" style="stroke:rgb(0,0,0)" />
  <line x1="38.520000" y1="0.000000" x2="38.520000" y2="40.680000" stroke-width="0.720000" style="stroke:rgb(0,0,0)" />
  <line x1="39.960000" y1="0.000000" x2="39.960000" y2="46.180000" stroke-width="0.720000" style="stroke:rgb(0,0,0)" />
  <line x1="41.400000" y1="0.000000" x2="41.400000" y2="46.180000" stroke-width="0.720000" style="stroke:rgb(0,0,0)" />
  <line x1="42.840000" y1="0.000000" x2="42.840000" y2="40.680000" stroke-width="0.720000" style="stroke:rgb(0,0,0)" />
  <line x1="45.000000" y1="0.000000" x2="45.000000" y2="40.680000" stroke-width="0.720000" style="stroke:rgb(0,0,0)" />
  <line x1="48.600000" y1="0.000000" x2="48.600000" y2="40.680000" stroke-width="2.160000" style="stroke:rgb(0,0,0)" />
  <line x1="50.760000" y1="0.000000" x2="50.760000" y2="40.680000" stroke-width="0.720000" style="stroke:rgb(0,0,0)" />
  <line x1="53.640000" y1="0.000000" x2="53.640000" y2="40.680000" stroke-width="2.160000" style="stroke:rgb(0,0,0)" />
  <line x1="56.520000" y1="0.000000" x2="56.520000" y2="40.680000" stroke-width="0.720000" style="stroke:rgb(0,0,0)" />
  <line x1="58.320000" y1="0.000000" x2="58.320000" y2="40.680000" stroke-width="1.440000" style="stroke:rgb(0,0,0)" />
  <line x1="61.200000" y1="0.000000" x2="61.200000" y2="40.680000" stroke-width="1.440000" style="stroke:rgb(0,0,0)" />
  <line x1="63.360000" y1="0.000000" x2="63.360000" y2="40.680000" stroke-width="1.440000" style="stroke:rgb(0,0,0)" />
  <line x1="65.520000" y1="0.000000" x2="65.520000" y2="40.680000" stroke-width="1.440000" style="stroke:rgb(0,0,0)" />
  <line x1="68.040000" y1="0.000000" x2="68.040000" y2="40.680000" stroke-width="0.720000" style="stroke:rgb(0,0,0)" />
  <line x1="70.200000" y1="0.000000" x2="70.200000" y2="40.680000" stroke-width="0.720000" style="stroke:rgb(0,0,0)" />
  <line x1="73.080000" y1="0.000000" x2="73.080000" y2="46.180000" stroke-width="0.720000" style="stroke:rgb(0,0,0)" />
  <line x1="74.520000" y1="0.000000" x2="74.520000" y2="46.180000" stroke-width="0.720000" style="stroke:rgb(0,0,0)" />
  <text x="3.240000" y="48.805000" font-size="5.250000" style="font-family:monospace;text-anchor:middle;fill:rgb(0,0,0)" >1</text>
  <text x="23.580000" y="49.680000" font-size="7.000000" style="font-family:monospace;text-anchor:middle;fill:rgb(0,0,0)" >234567</text>
  <text x="57.780000" y="49.680000" font-size="7.000000" style="font-family:monospace;text-anchor:middle;fill:rgb(0,0,0)" >890128</text>
</svg>
