<?xml version="1.0" standalone="no"?>
<!-- Created with glbarcode++ version 0.0.0 (https://github.com/jimevins/test-glbarcode) -->
<svg xmlns="http://www.w3.org/2000/svg" version="1.1" width="107.640000" height="32.000000" >
  <line x1="7.560000" y1="0.000000" x2="7.560000" y2="18.000000" stroke-width="0.720000" style="stroke:rgb(0,0,0)" />
  <line x1="10.080000" y1="0.000000" x2="10.080000" y2="18.000000" stroke-width="0.720000" style="stroke:rgb(0,0,0)" />
  <line x1="12.060000" y1="0.000000" x2="12.060000" y2="18.000000" stroke-width="1.800000" style="stroke:rgb(0,0,0)" />
  <line x1="14.580000" y1="0.000000" x2="14.580000" y2="18.000000" stroke-width="1.800000" style="stroke:rgb(0,0,0)" />
  <line x1="16.560000" y1="0.000000" x2="16.560000" y2="18.000000" stroke-width="0.720000" style="stroke:rgb(0,0,0)" />
  <line x1="18.540000" y1="0.000000" x2="18.540000" y2="18.000000" stroke-width="1.800000" style="stroke:rgb(0,0,0)" />
  <line x1="20.520000" y1="0.000000" x2="20.520000" y2="18.000000" stroke-width="0.720000" style="stroke:rgb(0,0,0)" />
  <line x1="21.960000" y1="0.000000" x2="21.960000" y2="18.000000" stroke-width="0.720000" style="stroke:rgb(0,0,0)" />
  <line x1="24.480000" y1="0.000000" x2="24.480000" y2="18.000000" stroke-width="0.720000" style="stroke:rgb(0,0,0)" />
  <line x1="26.460000" y1="0.000000" x2="26.460000" y2="18.000000" stroke-width="1.800000" style="stroke:rgb(0,0,0)" />
  <line x1="28.440000" y1="0.000000" x2="28.440000" y2="18.000000" stroke-width="0.720000" style="stroke:rgb(0,0,0)" />
  <line x1="30.420000" y1="0.000000" x2="30.420000" y2="18.000000" stroke-width="1.800000" style="stroke:rgb(0,0,0)" />
  <line x1="32.400000" y1="0.000000" x2="32.400000" y2="18.000000" stroke-width="0.720000" style="stroke:rgb(0,0,0)" />
  <line x1="34.920000" y1="0.000000" x2="34.920000" y2="18.000000" stroke-width="0.720000" style="stroke:rgb(0,0,0)" />
  <line x1="36.900000" y1="0.000000" x2="36.900000" y2="18.000000" stroke-width="1.800000" style="stroke:rgb(0,0,0)" />
  <line x1="39.420000" y1="0.000000" x2="39.420000" y2="18.000000" stroke-width="1.800000" style="stroke:rgb(0,0,0)" />
  <line x1="41.940000" y1="0.000000" x2="41.940000" y2="18.000000" stroke-width="1.800000" style="stroke:rgb(0,0,0)" />
  <line x1="43.920000" y1="0.000000" x2="43.920000" y2="18.000000" stroke-width="0.720000" style="stroke:rgb(0,0,0)" />
  <line x1="46.440000" y1="0.000000" x2="46.440000" y2="18.000000" stroke-width="0.720000" style="stroke:rgb(0,0,0)" />
  <line x1="47.880000" y1="0.000000" x2="47.880000" y2="18.000000" stroke-width="0.720000" style="stroke:rgb(0,0,0)" />
  <line x1="49.860000" y1="0.000000" x2="49.860000" y2="18.000000" stroke-width="1.800000" style="stroke:rgb(0,0,0)" />
  <line x1="51.840000" y1="0.000000" x2="51.840000" y2="18.000000" stroke-width="0.720000" style="stroke:rgb(0,0,0)" />
  <line x1="54.360000" y1="0.000000" x2="54.360000" y2="18.000000" stroke-width="0.720000" style="stroke:rgb(0,0,0)" />
  <line x1="55.800000" y1="0.000000" x2="55.800000" y2="18.000000" stroke-width="0.720000" style="stroke:rgb(0,0,0)" />
  <line x1="57.780000" y1="0.000000" x2="57.780000" y2="18.000000" stroke-width="1.800000" style="stroke:rgb(0,0,0)" />
  <line x1="59.760000" y1="0.000000" x2="59.760000" y2="18.000000" stroke-width="0.720000" style="stroke:rgb(0,0,0)" />
  <line x1="61.740000" y1="0.000000" x2="61.740000" y2="18.000000" stroke-width="1.800000" style="stroke:rgb(0,0,0)" />
  <line x1="64.800000" y1="0.000000" x2="64.800000" y2="18.000000" stroke-width="0.720000" style="stroke:rgb(0,0,0)" />
  <line x1="66.240000" y1="0.000000" x2="66.240000" y2="18.000000" stroke-width="0.720000" style="stroke:rgb(0,0,0)" />
  <line x1="68.220000" y1="0.000000" x2="68.220000" y2="18.000000" stroke-width="1.800000" style="stroke:rgb(0,0,0)" />
  <line x1="70.740000" y1="0.000000" x2="70.740000" y2="18.000000" stroke-width="1.800000" style="stroke:rgb(0,0,0)" />
  <line x1="73.260000" y1="0.000000" x2="73.260000" y2="18.000000" stroke-width="1.800000" style="stroke:rgb(0,0,0)" />
  <line x1="76.320000" y1="0.000000" x2="76.320000" y2="18.000000" stroke-width="0.720000" style="stroke:rgb(0,0,0)" />
  <line x1="77.760000" y1="0.000000" x2="77.760000" y2="18.000000" stroke-width="0.720000" style="stroke:rgb(0,0,0)" />
  <line x1="79.200000" y1="0.000000" x2="79.200000" y2="18.000000" stroke-width="0.720000" style="stroke:rgb(0,0,0)" />
  <line x1="80.640000" y1="0.000000" x2="80.640000" y2="18.000000" stroke-width="0.720000" style="stroke:rgb(0,0,0)" />
  <line x1="83.160000" y1="0.000000" x2="83.160000" y2="18.000000" stroke-width="0.720000" style="stroke:rgb(0,0,0)" />
  <line x1="85.680000" y1="0.000000" x2="85.680000" y2="18.000000" stroke-width="0.720000" style="stroke:rgb(0,0,0)" />
  <line x1="88.200000" y1="0.000000" x2="88.200000" y2="18.000000" stroke-width="0.720000" style="stroke:rgb(0,0,0)" />
  <line x1="89.640000" y1="0.000000" x2="89.640000" y2="18.000000" stroke-width="0.720000" style="stroke:rgb(0,0,0)" />
  <line x1="91.080000" y1="0.000000" x2="91.080000" y2="18.000000" stroke-width="0.720000" style="stroke:rgb(0,0,0)" />
  <line x1="93.600000" y1="0.000000" x2="93.600000" y2="18.000000" stroke-width="0.720000" style="stroke:rgb(0,0,0)" />
  <line x1="95.580000" y1="0.000000" x2="95.580000" y2="18.000000" stroke-width="1.800000" style="stroke:rgb(0,0,0)" />
  <line x1="98.100000" y1="0.000000" x2="98.100000" y2="18.000000" stroke-width="1.800000" style="stroke:rgb(0,0,0)" />
  <line x1="100.080000" y1="0.000000" x2="100.080000" y2="18.000000" stroke-width="0.720000" style="stroke:rgb(0,0,0)" />
  <text x="53.820000" y="30.000000" font-size="10.000000" style="font-family:monospace;text-anchor:middle;fill:rgb(0,0,0)" >*ABC123*</text>
</svg>
