<?xml version="1.0" standalone="no"?>
<!-- Created with glbarcode++ version 0.0.0 (https://github.com/jimevins/test-glbarcode) -->
<svg xmlns="http://www.w3.org/2000/svg" version="1.1" width="81.360000" height="51.680000" >
  <line x1="6.840000" y1="0.000000" x2="6.840000" y2="46.180000" stroke-width="0.720000" style="stroke:rgb(0,0,0)" />
  <line x1="8.280000" y1="0.000000" x2="8.280000" y2="46.180000" stroke-width="0.720000" style="stroke:rgb(0,0,0)" />
  <line x1="10.800000" y1="0.000000" x2="10.800000" y2="46.180000" stroke-width="1.440000" style="stroke:rgb(0,0,0)" />
  <line x1="13.320000" y1="0.000000" x2="13.320000" y2="46.180000" stroke-width="0.720000" style="stroke:rgb(0,0,0)" />
  <line x1="15.480000" y1="0.000000" x2="15.480000" y2="40.680000" stroke-width="0.720000" style="stroke:rgb(0,0,0)" />
  <line x1="18.000000" y1="0.000000" x2="18.000000" y2="40.680000" stroke-width="1.440000" style="stroke:rgb(0,0,0)" />
  <line x1="20.880000" y1="0.000000" x2="20.880000" y2="40.680000" stroke-width="2.880000" style="stroke:rgb(0,0,0)" />
  <line x1="23.400000" y1="0.000000" x2="23.400000" y2="40.680000" stroke-width="0.720000" style="stroke:rgb(0,0,0)" />
  <line x1="24.840000" y1="0.000000" x2="24.840000" y2="40.680000" stroke-width="0.720000" style="stroke:rgb(0,0,0)" />
  <line x1="28.080000" y1="0.000000" x2="28.080000" y2="40.680000" stroke-width="1.440000" style="stroke:rgb(0,0,0)" />
  <line x1="30.240000" y1="0.000000" x2="30.240000" y2="40.680000" stroke-width="1.440000" style="stroke:rgb(0,0,0)" />
  <line x1="33.480000" y1="0.000000" x2="33.480000" y2="40.680000" stroke-width="0.720000" style="stroke:rgb(0,0,0)" />
  <line x1="34.920000" y1="0.000000" x2="34.920000" y2="40.680000" stroke-width="0.720000" style="stroke:rgb(0,0,0)" />
  <line x1="37.440000" y1="0.000000" x2="37.440000" y2="40.680000" stroke-width="2.880000" style="stroke:rgb(0,0,0)" />
  <line x1="39.960000" y1="0.000000" x2="39.960000" y2="46.180000" stroke-width="0.720000" style="stroke:rgb(0,0,0)" />
  <line x1="41.400000" y1="0.000000" x2="41.400000" y2="46.180000" stroke-width="0.720000" style="stroke:rgb(0,0,0)" />
  <line x1="42.840000" y1="0.000000" x2="42.840000" y2="40.680000" stroke-width="0.720000" style="stroke:rgb(0,0,0)" />
  <line x1="45.720000" y1="0.000000" x2="45.720000" y2="40.680000" stroke-width="0.720000" style="stroke:rgb(0,0,0)" />
  <line x1="47.880000" y1="0.000000" x2="47.880000" y2="40.680000" stroke-width="0.720000" style="stroke:rgb(0,0,0)" />
  <line x1="50.040000" y1="0.000000" x2="50.040000" y2="40.680000" stroke-width="0.720000" style="stroke:rgb(0,0,0)" />
  <line x1="53.640000" y1="0.000000" x2="53.640000" y2="40.680000" stroke-width="2.160000" style="stroke:rgb(0,0,0)" />
  <line x1="55.800000" y1="0.000000" x2="55.800000" y2="40.680000" stroke-width="0.720000" style="stroke:rgb(0,0,0)" />
  <line x1="58.680000" y1="0.000000" x2="58.680000" y2="40.680000" stroke-width="2.160000" style="stroke:rgb(0,0,0)" />
  <line x1="61.560000" y1="0.000000" x2="61.560000" y2="40.680000" stroke-width="0.720000" style="stroke:rgb(0,0,0)" />
  <line x1="63.360000" y1="0.000000" x2="63.360000" y2="40.680000" stroke-width="1.440000" style="stroke:rgb(0,0,0)" />
  <line x1="66.240000" y1="0.000000" x2="66.240000" y2="40.680000" stroke-width="1.440000" style="stroke:rgb(0,0,0)" />
  <line x1="68.400000" y1="0.000000" x2="68.400000" y2="46.180000" stroke-width="1.440000" style="stroke:rgb(0,0,0)" />
  <line x1="70.560000" y1="0.000000" x2="70.560000" y2="46.180000" stroke-width="1.440000" style="stroke:rgb(0,0,0)" />
  <line x1="73.080000" y1="0.000000" x2="73.080000" y2="46.180000" stroke-width="0.720000" style="stroke:rgb(0,0,0)" />
  <line x1="74.520000" y1="0.000000" x2="74.520000" y2="46.180000" stroke-width="0.720000" style="stroke:rgb(0,0,0)" />
  <text x="3.240000" y="48.805000" font-size="5.250000" style="font-family:monospace;text-anchor:middle;fill:rgb(0,0,0)" >1</text>
  <text x="26.460000" y="49.680000" font-size="7.000000" style="font-family:monospace;text-anchor:middle;fill:rgb(0,0,0)" >23456</text>
  <text x="54.900000" y="49.680000" font-size="7.000000" style="font-family:monospace;text-anchor:middle;fill:rgb(0,0,0)" >78901</text>
  <text x="78.120000" y="48.805000" font-size="5.250000" style="font-family:monospace;text-anchor:middle;fill:rgb(0,0,0)" >2</text>
</svg>
