<?xml version="1.0" standalone="no"?>
<!-- Created with glbarcode++ version 0.0.0 (https://github.com/jimevins/glbarcode) -->
<svg xmlns="http://www.w3.org/2000/svg" version="1.1" width="288.000000" height="72.000000" >
  <line x1="16.941176" y1="0.000000" x2="16.941176" y2="40.627451" stroke-width="1.613445" style="stroke:rgb(0,0,0)" />
  <line x1="22.588235" y1="0.000000" x2="22.588235" y2="40.627451" stroke-width="1.613445" style="stroke:rgb(0,0,0)" />
  <line x1="27.025210" y1="0.000000" x2="27.025210" y2="40.627451" stroke-width="4.033613" style="stroke:rgb(0,0,0)" />
  <line x1="32.672269" y1="0.000000" x2="32.672269" y2="40.627451" stroke-width="4.033613" style="stroke:rgb(0,0,0)" />
  <line x1="37.109244" y1="0.000000" x2="37.109244" y2="40.627451" stroke-width="1.613445" style="stroke:rgb(0,0,0)" />
  <line x1="41.546218" y1="0.000000" x2="41.546218" y2="40.627451" stroke-width="4.033613" style="stroke:rgb(0,0,0)" />
  <line x1="47.193277" y1="0.000000" x2="47.193277" y2="40.627451" stroke-width="4.033613" style="stroke:rgb(0,0,0)" />
  <line x1="51.630252" y1="0.000000" x2="51.630252" y2="40.627451" stroke-width="1.613445" style="stroke:rgb(0,0,0)" />
  <line x1="57.277311" y1="0.000000" x2="57.277311" y2="40.627451" stroke-width="1.613445" style="stroke:rgb(0,0,0)" />
  <line x1="60.504202" y1="0.000000" x2="60.504202" y2="40.627451" stroke-width="1.613445" style="stroke:rgb(0,0,0)" />
  <line x1="63.731092" y1="0.000000" x2="63.731092" y2="40.627451" stroke-width="1.613445" style="stroke:rgb(0,0,0)" />
  <line x1="66.957983" y1="0.000000" x2="66.957983" y2="40.627451" stroke-width="1.613445" style="stroke:rgb(0,0,0)" />
  <line x1="73.815126" y1="0.000000" x2="73.815126" y2="40.627451" stroke-width="4.033613" style="stroke:rgb(0,0,0)" />
  <line x1="79.462185" y1="0.000000" x2="79.462185" y2="40.627451" stroke-width="4.033613" style="stroke:rgb(0,0,0)" />
  <line x1="83.899160" y1="0.000000" x2="83.899160" y2="40.627451" stroke-width="1.613445" style="stroke:rgb(0,0,0)" />
  <line x1="87.126050" y1="0.000000" x2="87.126050" y2="40.627451" stroke-width="1.613445" style="stroke:rgb(0,0,0)" />
  <line x1="90.352941" y1="0.000000" x2="90.352941" y2="40.627451" stroke-width="1.613445" style="stroke:rgb(0,0,0)" />
  <line x1="94.789916" y1="0.000000" x2="94.789916" y2="40.627451" stroke-width="4.033613" style="stroke:rgb(0,0,0)" />
  <line x1="101.647059" y1="0.000000" x2="101.647059" y2="40.627451" stroke-width="1.613445" style="stroke:rgb(0,0,0)" />
  <line x1="106.084034" y1="0.000000" x2="106.084034" y2="40.627451" stroke-width="4.033613" style="stroke:rgb(0,0,0)" />
  <line x1="111.731092" y1="0.000000" x2="111.731092" y2="40.627451" stroke-width="4.033613" style="stroke:rgb(0,0,0)" />
  <line x1="116.168067" y1="0.000000" x2="116.168067" y2="40.627451" stroke-width="1.613445" style="stroke:rgb(0,0,0)" />
  <line x1="120.605042" y1="0.000000" x2="120.605042" y2="40.627451" stroke-width="4.033613" style="stroke:rgb(0,0,0)" />
  <line x1="127.462185" y1="0.000000" x2="127.462185" y2="40.627451" stroke-width="1.613445" style="stroke:rgb(0,0,0)" />
  <line x1="130.689076" y1="0.000000" x2="130.689076" y2="40.627451" stroke-width="1.613445" style="stroke:rgb(0,0,0)" />
  <line x1="133.915966" y1="0.000000" x2="133.915966" y2="40.627451" stroke-width="1.613445" style="stroke:rgb(0,0,0)" />
  <line x1="137.142857" y1="0.000000" x2="137.142857" y2="40.627451" stroke-width="1.613445" style="stroke:rgb(0,0,0)" />
  <line x1="144.000000" y1="0.000000" x2="144.000000" y2="40.627451" stroke-width="4.033613" style="stroke:rgb(0,0,0)" />
  <line x1="149.647059" y1="0.000000" x2="149.647059" y2="40.627451" stroke-width="4.033613" style="stroke:rgb(0,0,0)" />
  <line x1="154.084034" y1="0.000000" x2="154.084034" y2="40.627451" stroke-width="1.613445" style="stroke:rgb(0,0,0)" />
  <line x1="157.310924" y1="0.000000" x2="157.310924" y2="40.627451" stroke-width="1.613445" style="stroke:rgb(0,0,0)" />
  <line x1="160.537815" y1="0.000000" x2="160.537815" y2="40.627451" stroke-width="1.613445" style="stroke:rgb(0,0,0)" />
  <line x1="167.394958" y1="0.000000" x2="167.394958" y2="40.627451" stroke-width="4.033613" style="stroke:rgb(0,0,0)" />
  <line x1="173.042017" y1="0.000000" x2="173.042017" y2="40.627451" stroke-width="4.033613" style="stroke:rgb(0,0,0)" />
  <line x1="177.478992" y1="0.000000" x2="177.478992" y2="40.627451" stroke-width="1.613445" style="stroke:rgb(0,0,0)" />
  <line x1="181.915966" y1="0.000000" x2="181.915966" y2="40.627451" stroke-width="4.033613" style="stroke:rgb(0,0,0)" />
  <line x1="186.352941" y1="0.000000" x2="186.352941" y2="40.627451" stroke-width="1.613445" style="stroke:rgb(0,0,0)" />
  <line x1="192.000000" y1="0.000000" x2="192.000000" y2="40.627451" stroke-width="1.613445" style="stroke:rgb(0,0,0)" />
  <line x1="195.226891" y1="0.000000" x2="195.226891" y2="40.627451" stroke-width="1.613445" style="stroke:rgb(0,0,0)" />
  <line x1="199.663866" y1="0.000000" x2="199.663866" y2="40.627451" stroke-width="4.033613" style="stroke:rgb(0,0,0)" />
  <line x1="204.100840" y1="0.000000" x2="204.100840" y2="40.627451" stroke-width="1.613445" style="stroke:rgb(0,0,0)" />
  <line x1="208.537815" y1="0.000000" x2="208.537815" y2="40.627451" stroke-width="4.033613" style="stroke:rgb(0,0,0)" />
  <line x1="216.605042" y1="0.000000" x2="216.605042" y2="40.627451" stroke-width="4.033613" style="stroke:rgb(0,0,0)" />
  <line x1="221.042017" y1="0.000000" x2="221.042017" y2="40.627451" stroke-width="1.613445" style="stroke:rgb(0,0,0)" />
  <line x1="224.268908" y1="0.000000" x2="224.268908" y2="40.627451" stroke-width="1.613445" style="stroke:rgb(0,0,0)" />
  <line x1="228.705882" y1="0.000000" x2="228.705882" y2="40.627451" stroke-width="4.033613" style="stroke:rgb(0,0,0)" />
  <line x1="233.142857" y1="0.000000" x2="233.142857" y2="40.627451" stroke-width="1.613445" style="stroke:rgb(0,0,0)" />
  <line x1="237.579832" y1="0.000000" x2="237.579832" y2="40.627451" stroke-width="4.033613" style="stroke:rgb(0,0,0)" />
  <line x1="244.436975" y1="0.000000" x2="244.436975" y2="40.627451" stroke-width="1.613445" style="stroke:rgb(0,0,0)" />
  <line x1="247.663866" y1="0.000000" x2="247.663866" y2="40.627451" stroke-width="1.613445" style="stroke:rgb(0,0,0)" />
  <line x1="250.890756" y1="0.000000" x2="250.890756" y2="40.627451" stroke-width="1.613445" style="stroke:rgb(0,0,0)" />
  <line x1="256.537815" y1="0.000000" x2="256.537815" y2="40.627451" stroke-width="1.613445" style="stroke:rgb(0,0,0)" />
  <line x1="260.974790" y1="0.000000" x2="260.974790" y2="40.627451" stroke-width="4.033613" style="stroke:rgb(0,0,0)" />
  <line x1="266.621849" y1="0.000000" x2="266.621849" y2="40.627451" stroke-width="4.033613" style="stroke:rgb(0,0,0)" />
  <line x1="271.058824" y1="0.000000" x2="271.058824" y2="40.627451" stroke-width="1.613445" style="stroke:rgb(0,0,0)" />
  <text x="144.000000" y="64.156863" font-size="22.408964" style="font-family:monospace;text-anchor:middle;fill:rgb(0,0,0)" >*C0DE0016*</text>
</svg>
