<?xml version="1.0" standalone="no"?>
<!-- Created with glbarcode++ version 0.0.0 (https://github.com/jimevins/glbarcode) -->
<svg xmlns="http://www.w3.org/2000/svg" version="1.1" width="216.000000" height="72.000000" >
  <line x1="15.170569" y1="0.000000" x2="15.170569" y2="43.906355" stroke-width="1.444816" style="stroke:rgb(0,0,0)" />
  <line x1="20.227425" y1="0.000000" x2="20.227425" y2="43.906355" stroke-width="1.444816" style="stroke:rgb(0,0,0)" />
  <line x1="24.200669" y1="0.000000" x2="24.200669" y2="43.906355" stroke-width="3.612040" style="stroke:rgb(0,0,0)" />
  <line x1="29.257525" y1="0.000000" x2="29.257525" y2="43.906355" stroke-width="3.612040" style="stroke:rgb(0,0,0)" />
  <line x1="33.230769" y1="0.000000" x2="33.230769" y2="43.906355" stroke-width="1.444816" style="stroke:rgb(0,0,0)" />
  <line x1="37.204013" y1="0.000000" x2="37.204013" y2="43.906355" stroke-width="3.612040" style="stroke:rgb(0,0,0)" />
  <line x1="41.177258" y1="0.000000" x2="41.177258" y2="43.906355" stroke-width="1.444816" style="stroke:rgb(0,0,0)" />
  <line x1="44.066890" y1="0.000000" x2="44.066890" y2="43.906355" stroke-width="1.444816" style="stroke:rgb(0,0,0)" />
  <line x1="49.123746" y1="0.000000" x2="49.123746" y2="43.906355" stroke-width="1.444816" style="stroke:rgb(0,0,0)" />
  <line x1="53.096990" y1="0.000000" x2="53.096990" y2="43.906355" stroke-width="3.612040" style="stroke:rgb(0,0,0)" />
  <line x1="57.070234" y1="0.000000" x2="57.070234" y2="43.906355" stroke-width="1.444816" style="stroke:rgb(0,0,0)" />
  <line x1="61.043478" y1="0.000000" x2="61.043478" y2="43.906355" stroke-width="3.612040" style="stroke:rgb(0,0,0)" />
  <line x1="65.016722" y1="0.000000" x2="65.016722" y2="43.906355" stroke-width="1.444816" style="stroke:rgb(0,0,0)" />
  <line x1="70.073579" y1="0.000000" x2="70.073579" y2="43.906355" stroke-width="1.444816" style="stroke:rgb(0,0,0)" />
  <line x1="74.046823" y1="0.000000" x2="74.046823" y2="43.906355" stroke-width="3.612040" style="stroke:rgb(0,0,0)" />
  <line x1="79.103679" y1="0.000000" x2="79.103679" y2="43.906355" stroke-width="3.612040" style="stroke:rgb(0,0,0)" />
  <line x1="84.160535" y1="0.000000" x2="84.160535" y2="43.906355" stroke-width="3.612040" style="stroke:rgb(0,0,0)" />
  <line x1="88.133779" y1="0.000000" x2="88.133779" y2="43.906355" stroke-width="1.444816" style="stroke:rgb(0,0,0)" />
  <line x1="93.190635" y1="0.000000" x2="93.190635" y2="43.906355" stroke-width="1.444816" style="stroke:rgb(0,0,0)" />
  <line x1="96.080268" y1="0.000000" x2="96.080268" y2="43.906355" stroke-width="1.444816" style="stroke:rgb(0,0,0)" />
  <line x1="100.053512" y1="0.000000" x2="100.053512" y2="43.906355" stroke-width="3.612040" style="stroke:rgb(0,0,0)" />
  <line x1="104.026756" y1="0.000000" x2="104.026756" y2="43.906355" stroke-width="1.444816" style="stroke:rgb(0,0,0)" />
  <line x1="109.083612" y1="0.000000" x2="109.083612" y2="43.906355" stroke-width="1.444816" style="stroke:rgb(0,0,0)" />
  <line x1="111.973244" y1="0.000000" x2="111.973244" y2="43.906355" stroke-width="1.444816" style="stroke:rgb(0,0,0)" />
  <line x1="115.946488" y1="0.000000" x2="115.946488" y2="43.906355" stroke-width="3.612040" style="stroke:rgb(0,0,0)" />
  <line x1="119.919732" y1="0.000000" x2="119.919732" y2="43.906355" stroke-width="1.444816" style="stroke:rgb(0,0,0)" />
  <line x1="123.892977" y1="0.000000" x2="123.892977" y2="43.906355" stroke-width="3.612040" style="stroke:rgb(0,0,0)" />
  <line x1="130.033445" y1="0.000000" x2="130.033445" y2="43.906355" stroke-width="1.444816" style="stroke:rgb(0,0,0)" />
  <line x1="132.923077" y1="0.000000" x2="132.923077" y2="43.906355" stroke-width="1.444816" style="stroke:rgb(0,0,0)" />
  <line x1="136.896321" y1="0.000000" x2="136.896321" y2="43.906355" stroke-width="3.612040" style="stroke:rgb(0,0,0)" />
  <line x1="141.953177" y1="0.000000" x2="141.953177" y2="43.906355" stroke-width="3.612040" style="stroke:rgb(0,0,0)" />
  <line x1="147.010033" y1="0.000000" x2="147.010033" y2="43.906355" stroke-width="3.612040" style="stroke:rgb(0,0,0)" />
  <line x1="153.150502" y1="0.000000" x2="153.150502" y2="43.906355" stroke-width="1.444816" style="stroke:rgb(0,0,0)" />
  <line x1="156.040134" y1="0.000000" x2="156.040134" y2="43.906355" stroke-width="1.444816" style="stroke:rgb(0,0,0)" />
  <line x1="158.929766" y1="0.000000" x2="158.929766" y2="43.906355" stroke-width="1.444816" style="stroke:rgb(0,0,0)" />
  <line x1="161.819398" y1="0.000000" x2="161.819398" y2="43.906355" stroke-width="1.444816" style="stroke:rgb(0,0,0)" />
  <line x1="166.876254" y1="0.000000" x2="166.876254" y2="43.906355" stroke-width="1.444816" style="stroke:rgb(0,0,0)" />
  <line x1="171.933110" y1="0.000000" x2="171.933110" y2="43.906355" stroke-width="1.444816" style="stroke:rgb(0,0,0)" />
  <line x1="176.989967" y1="0.000000" x2="176.989967" y2="43.906355" stroke-width="1.444816" style="stroke:rgb(0,0,0)" />
  <line x1="179.879599" y1="0.000000" x2="179.879599" y2="43.906355" stroke-width="1.444816" style="stroke:rgb(0,0,0)" />
  <line x1="182.769231" y1="0.000000" x2="182.769231" y2="43.906355" stroke-width="1.444816" style="stroke:rgb(0,0,0)" />
  <line x1="187.826087" y1="0.000000" x2="187.826087" y2="43.906355" stroke-width="1.444816" style="stroke:rgb(0,0,0)" />
  <line x1="191.799331" y1="0.000000" x2="191.799331" y2="43.906355" stroke-width="3.612040" style="stroke:rgb(0,0,0)" />
  <line x1="196.856187" y1="0.000000" x2="196.856187" y2="43.906355" stroke-width="3.612040" style="stroke:rgb(0,0,0)" />
  <line x1="200.829431" y1="0.000000" x2="200.829431" y2="43.906355" stroke-width="1.444816" style="stroke:rgb(0,0,0)" />
  <text x="108.000000" y="64.976589" font-size="20.066890" style="font-family:monospace;text-anchor:middle;fill:rgb(0,0,0)" >*ABC123*</text>
</svg>
