<?xml version="1.0" standalone="no"?>
<!-- Created with glbarcode++ version 0.0.0 (https://github.com/jimevins/glbarcode) -->
<svg xmlns="http://www.w3.org/2000/svg" version="1.1" width="162.000000" height="102.902655" >
  <line x1="13.619469" y1="0.000000" x2="13.619469" y2="91.951327" stroke-width="1.433628" style="stroke:rgb(0,0,0)" />
  <line x1="16.486726" y1="0.000000" x2="16.486726" y2="91.951327" stroke-width="1.433628" style="stroke:rgb(0,0,0)" />
  <line x1="20.787611" y1="0.000000" x2="20.787611" y2="81.000000" stroke-width="1.433628" style="stroke:rgb(0,0,0)" />
  <line x1="25.805310" y1="0.000000" x2="25.805310" y2="81.000000" stroke-width="2.867257" style="stroke:rgb(0,0,0)" />
  <line x1="31.539823" y1="0.000000" x2="31.539823" y2="81.000000" stroke-width="5.734513" style="stroke:rgb(0,0,0)" />
  <line x1="36.557522" y1="0.000000" x2="36.557522" y2="81.000000" stroke-width="1.433628" style="stroke:rgb(0,0,0)" />
  <line x1="42.292035" y1="0.000000" x2="42.292035" y2="81.000000" stroke-width="4.300885" style="stroke:rgb(0,0,0)" />
  <line x1="46.592920" y1="0.000000" x2="46.592920" y2="81.000000" stroke-width="1.433628" style="stroke:rgb(0,0,0)" />
  <line x1="50.176991" y1="0.000000" x2="50.176991" y2="81.000000" stroke-width="2.867257" style="stroke:rgb(0,0,0)" />
  <line x1="56.628319" y1="0.000000" x2="56.628319" y2="81.000000" stroke-width="1.433628" style="stroke:rgb(0,0,0)" />
  <line x1="63.796460" y1="0.000000" x2="63.796460" y2="81.000000" stroke-width="1.433628" style="stroke:rgb(0,0,0)" />
  <line x1="66.663717" y1="0.000000" x2="66.663717" y2="81.000000" stroke-width="1.433628" style="stroke:rgb(0,0,0)" />
  <line x1="70.964602" y1="0.000000" x2="70.964602" y2="81.000000" stroke-width="1.433628" style="stroke:rgb(0,0,0)" />
  <line x1="76.699115" y1="0.000000" x2="76.699115" y2="81.000000" stroke-width="1.433628" style="stroke:rgb(0,0,0)" />
  <line x1="79.566372" y1="0.000000" x2="79.566372" y2="91.951327" stroke-width="1.433628" style="stroke:rgb(0,0,0)" />
  <line x1="82.433628" y1="0.000000" x2="82.433628" y2="91.951327" stroke-width="1.433628" style="stroke:rgb(0,0,0)" />
  <line x1="85.300885" y1="0.000000" x2="85.300885" y2="81.000000" stroke-width="1.433628" style="stroke:rgb(0,0,0)" />
  <line x1="89.601770" y1="0.000000" x2="89.601770" y2="81.000000" stroke-width="1.433628" style="stroke:rgb(0,0,0)" />
  <line x1="96.769912" y1="0.000000" x2="96.769912" y2="81.000000" stroke-width="4.300885" style="stroke:rgb(0,0,0)" />
  <line x1="101.070796" y1="0.000000" x2="101.070796" y2="81.000000" stroke-width="1.433628" style="stroke:rgb(0,0,0)" />
  <line x1="106.805310" y1="0.000000" x2="106.805310" y2="81.000000" stroke-width="4.300885" style="stroke:rgb(0,0,0)" />
  <line x1="112.539823" y1="0.000000" x2="112.539823" y2="81.000000" stroke-width="1.433628" style="stroke:rgb(0,0,0)" />
  <line x1="116.123894" y1="0.000000" x2="116.123894" y2="81.000000" stroke-width="2.867257" style="stroke:rgb(0,0,0)" />
  <line x1="121.858407" y1="0.000000" x2="121.858407" y2="81.000000" stroke-width="2.867257" style="stroke:rgb(0,0,0)" />
  <line x1="126.159292" y1="0.000000" x2="126.159292" y2="81.000000" stroke-width="2.867257" style="stroke:rgb(0,0,0)" />
  <line x1="130.460177" y1="0.000000" x2="130.460177" y2="81.000000" stroke-width="2.867257" style="stroke:rgb(0,0,0)" />
  <line x1="135.477876" y1="0.000000" x2="135.477876" y2="81.000000" stroke-width="1.433628" style="stroke:rgb(0,0,0)" />
  <line x1="139.778761" y1="0.000000" x2="139.778761" y2="81.000000" stroke-width="1.433628" style="stroke:rgb(0,0,0)" />
  <line x1="145.513274" y1="0.000000" x2="145.513274" y2="91.951327" stroke-width="1.433628" style="stroke:rgb(0,0,0)" />
  <line x1="148.380531" y1="0.000000" x2="148.380531" y2="91.951327" stroke-width="1.433628" style="stroke:rgb(0,0,0)" />
  <text x="6.451327" y="94.564712" font-size="10.453540" style="font-family:monospace;text-anchor:middle;fill:rgb(0,0,0)" >1</text>
  <text x="48.026549" y="95.435841" font-size="13.938053" style="font-family:monospace;text-anchor:middle;fill:rgb(0,0,0)" >234567</text>
  <text x="113.973451" y="95.435841" font-size="13.938053" style="font-family:monospace;text-anchor:middle;fill:rgb(0,0,0)" >890128</text>
</svg>
